<?xml version="1.0" encoding="UTF-8" ?>
<!DOCTYPE svg PUBLIC "-//W3C//DTD SVG 1.1//EN" "http://www.w3.org/Graphics/SVG/1.1/DTD/svg11.dtd">
<svg width="400pt" height="349pt" viewBox="0 0 400 349" version="1.1" xmlns="http://www.w3.org/2000/svg">
<path fill="#fbfbfb" d=" M 0.00 0.00 L 400.00 0.00 L 400.00 232.12 C 385.35 237.13 398.00 217.64 388.00 216.02 C 383.13 215.58 384.66 209.18 383.03 206.02 C 381.27 209.85 378.78 205.05 379.45 202.46 C 376.61 199.01 372.36 195.60 367.78 198.29 C 362.60 192.09 354.34 190.58 347.95 185.84 C 347.91 180.19 356.46 181.90 360.25 179.16 C 361.43 178.71 362.60 178.25 363.78 177.79 C 368.30 177.86 378.73 179.51 377.64 171.44 C 378.60 169.06 376.91 167.02 375.56 165.24 C 362.60 163.87 350.40 170.59 337.43 168.97 C 335.31 167.99 333.21 166.96 331.13 165.91 C 323.54 161.78 314.07 166.13 306.38 161.92 C 306.15 161.66 305.67 161.13 305.43 160.87 C 302.96 157.33 299.47 154.72 296.44 151.71 C 302.21 145.60 312.03 145.27 316.71 137.75 C 320.06 133.09 323.50 128.47 328.11 124.98 C 332.61 120.36 332.92 113.15 336.33 107.73 C 339.35 105.26 342.00 102.32 343.93 98.91 C 346.40 98.99 348.69 97.97 350.16 95.96 C 355.56 93.32 360.91 90.56 365.77 86.99 C 375.92 81.36 385.84 67.59 380.27 55.75 C 376.67 47.96 370.91 40.18 362.26 37.77 C 352.88 36.63 342.32 37.45 334.20 31.76 C 333.20 30.18 332.23 28.57 331.00 27.15 C 329.39 25.29 327.87 23.34 326.12 21.59 C 313.71 9.28 294.41 17.72 286.64 30.92 C 270.07 41.93 248.86 42.55 230.58 49.70 C 229.67 50.02 228.77 50.36 227.88 50.70 C 225.58 51.37 223.30 52.07 221.08 52.95 C 200.59 59.36 178.61 55.13 157.83 59.79 C 148.89 62.62 141.40 68.70 132.33 71.33 C 121.39 78.99 109.36 84.89 98.21 92.19 C 90.04 100.13 79.45 104.67 70.55 111.62 C 65.01 112.34 57.31 110.11 53.81 115.96 C 52.08 117.58 51.99 119.96 52.01 122.17 C 51.99 122.61 51.93 123.50 51.91 123.94 C 51.61 124.42 51.03 125.37 50.74 125.85 C 49.35 126.59 48.01 127.43 46.67 128.26 C 38.84 128.22 34.23 114.78 25.89 120.76 C 25.16 121.34 24.47 121.96 23.82 122.62 C 20.21 126.13 16.51 129.64 13.73 133.88 C 13.50 134.20 13.05 134.84 12.82 135.16 C 12.15 139.42 13.53 144.06 14.81 148.23 C 15.17 149.14 15.56 150.04 15.98 150.93 C 16.39 157.87 17.31 164.77 18.26 171.66 C 16.12 175.05 15.83 178.87 16.89 182.67 C 7.44 180.95 9.39 191.18 3.18 194.36 C 4.00 202.04 -0.60 212.78 7.48 217.47 C 5.82 225.05 15.16 223.21 15.90 229.09 C 14.35 235.71 16.93 242.27 18.04 248.78 C 17.61 256.37 27.30 258.34 27.88 265.85 C 24.96 269.53 24.28 274.65 27.93 278.08 C 28.31 281.05 22.21 279.94 24.43 283.64 C 27.21 288.68 18.46 287.44 18.94 292.00 C 18.15 294.55 21.24 294.55 22.85 295.30 C 27.47 297.01 29.90 301.63 33.37 304.83 C 38.77 307.72 44.65 300.17 49.16 304.85 C 50.50 304.00 51.66 302.91 52.91 301.95 C 49.94 312.73 64.28 316.21 71.99 315.09 C 82.75 317.89 93.03 308.83 103.26 312.72 C 102.62 332.00 135.94 308.10 136.74 327.30 C 141.84 329.95 154.54 323.54 152.38 334.71 C 158.70 340.36 178.31 328.39 176.60 343.37 C 180.88 342.69 184.98 344.41 184.24 349.00 L 0.00 349.00 L 0.00 0.00 Z" />
<path fill="#a5ae88" d=" M 286.64 30.92 C 294.41 17.72 313.71 9.28 326.12 21.59 C 324.71 21.97 323.10 22.20 322.68 23.83 C 321.06 23.91 319.44 23.96 317.82 23.98 C 319.42 22.89 322.15 22.48 322.16 20.09 C 316.18 20.96 310.23 22.36 304.17 21.21 C 300.05 24.89 292.92 24.23 291.69 30.60 C 293.67 31.89 290.92 33.53 290.35 34.92 C 294.89 38.97 301.33 31.67 305.45 36.51 C 310.13 37.59 314.75 35.02 319.37 36.27 C 323.22 35.29 327.23 34.21 330.52 31.86 C 329.59 30.19 329.66 28.58 331.00 27.15 C 332.23 28.57 333.20 30.18 334.20 31.76 C 332.96 34.05 328.40 38.37 336.45 36.74 C 344.89 38.79 353.66 37.94 362.26 37.77 C 370.91 40.18 376.67 47.96 380.27 55.75 C 380.21 57.10 380.15 58.45 380.07 59.80 L 379.35 60.27 C 379.21 56.59 377.81 52.33 374.82 50.19 C 363.35 47.91 350.22 46.06 339.34 51.26 C 340.36 54.37 338.60 53.99 336.29 53.00 C 336.57 54.69 336.90 56.38 337.18 58.08 C 334.82 58.40 333.68 57.13 333.51 54.86 C 332.69 56.00 331.24 60.59 330.11 58.02 C 330.21 52.88 321.51 61.66 323.64 55.32 C 319.37 53.63 314.99 51.60 310.31 51.70 C 304.70 48.59 297.19 53.66 290.72 53.84 C 293.30 49.61 299.15 51.38 302.25 48.15 C 295.98 47.17 290.19 50.34 284.23 50.89 C 279.79 46.93 289.62 45.63 291.60 45.57 C 297.64 40.42 286.50 36.82 286.64 30.92 Z" />
<path fill="#7e8f59" d=" M 304.17 21.21 C 310.23 22.36 316.18 20.96 322.16 20.09 C 322.15 22.48 319.42 22.89 317.82 23.98 C 319.44 23.96 321.06 23.91 322.68 23.83 C 328.95 24.45 323.80 31.34 320.19 27.49 C 313.91 30.27 320.70 29.86 324.15 31.52 C 321.42 33.86 314.16 32.04 319.37 36.27 C 314.75 35.02 310.13 37.59 305.45 36.51 C 301.33 31.67 294.89 38.97 290.35 34.92 C 290.92 33.53 293.67 31.89 291.69 30.60 C 292.92 24.23 300.05 24.89 304.17 21.21 Z" />
<path fill="#909b6d" d=" M 322.68 23.83 C 323.10 22.20 324.71 21.97 326.12 21.59 C 327.87 23.34 329.39 25.29 331.00 27.15 C 329.66 28.58 329.59 30.19 330.52 31.86 C 327.23 34.21 323.22 35.29 319.37 36.27 C 314.16 32.04 321.42 33.86 324.15 31.52 C 320.70 29.86 313.91 30.27 320.19 27.49 C 323.80 31.34 328.95 24.45 322.68 23.83 Z" />
<path fill="#b1ba95" d=" M 230.58 49.70 C 248.86 42.55 270.07 41.93 286.64 30.92 C 286.50 36.82 297.64 40.42 291.60 45.57 C 289.62 45.63 279.79 46.93 284.23 50.89 C 290.19 50.34 295.98 47.17 302.25 48.15 C 299.15 51.38 293.30 49.61 290.72 53.84 C 285.19 55.27 280.61 58.75 276.07 62.05 C 265.73 66.88 254.49 62.73 244.11 60.36 C 240.13 63.01 232.16 57.92 232.62 64.72 C 227.90 65.18 222.50 67.63 218.47 66.61 C 214.62 71.80 207.17 69.85 202.63 74.06 C 200.05 74.27 196.93 70.79 196.11 74.76 C 181.71 68.78 168.70 81.58 154.34 79.32 C 150.20 84.76 143.27 79.07 137.93 84.02 C 134.38 87.40 127.90 85.56 125.43 90.03 C 124.41 89.89 123.38 89.76 122.36 89.63 C 115.26 90.76 108.51 95.53 100.82 94.84 C 113.62 86.85 127.68 81.62 141.24 75.48 C 143.92 74.07 151.87 76.77 152.07 71.94 C 148.26 71.01 140.75 77.11 140.04 71.19 C 157.09 62.31 177.03 64.70 195.36 59.43 C 204.20 59.43 214.02 58.98 221.08 52.95 C 223.30 52.07 225.58 51.37 227.88 50.70 C 225.58 52.59 224.94 54.56 227.61 56.44 C 228.64 60.41 222.71 57.49 220.53 58.39 C 204.51 62.65 188.44 65.45 171.72 65.25 C 173.49 70.99 181.37 68.46 185.68 68.70 C 205.56 66.46 225.39 62.28 244.14 55.23 C 250.33 56.47 256.12 53.56 261.81 51.56 C 263.17 46.57 254.59 49.52 252.38 47.63 C 244.96 45.39 237.56 52.78 230.58 49.70 Z" />
<path fill="#c4c9b4" d=" M 334.20 31.76 C 342.32 37.45 352.88 36.63 362.26 37.77 C 353.66 37.94 344.89 38.79 336.45 36.74 C 328.40 38.37 332.96 34.05 334.20 31.76 Z" />
<path fill="#9fa97d" d=" M 230.58 49.70 C 237.56 52.78 244.96 45.39 252.38 47.63 C 254.59 49.52 263.17 46.57 261.81 51.56 C 256.12 53.56 250.33 56.47 244.14 55.23 C 225.39 62.28 205.56 66.46 185.68 68.70 C 181.37 68.46 173.49 70.99 171.72 65.25 C 188.44 65.45 204.51 62.65 220.53 58.39 C 222.71 57.49 228.64 60.41 227.61 56.44 C 224.94 54.56 225.58 52.59 227.88 50.70 C 228.77 50.36 229.67 50.02 230.58 49.70 Z" />
<path fill="#7f8253" d=" M 339.34 51.26 C 350.22 46.06 363.35 47.91 374.82 50.19 C 377.81 52.33 379.21 56.59 379.35 60.27 C 379.09 60.75 378.58 61.70 378.32 62.17 C 377.75 54.07 366.62 46.38 359.40 51.11 C 356.94 49.79 354.62 52.86 351.90 52.19 C 349.68 52.56 343.63 51.23 347.98 54.06 C 351.51 57.56 345.36 57.38 342.59 58.16 C 340.76 57.96 338.97 57.09 337.18 58.08 C 336.90 56.38 336.57 54.69 336.29 53.00 C 338.60 53.99 340.36 54.37 339.34 51.26 Z" />
<path fill="#6a641c" d=" M 359.40 51.11 C 366.62 46.38 377.75 54.07 378.32 62.17 C 375.53 67.80 371.63 72.79 365.10 74.10 C 357.01 82.19 344.93 84.67 334.95 90.03 C 332.43 91.19 329.82 92.14 327.01 92.06 C 330.60 86.76 340.36 89.55 341.18 81.25 C 345.83 76.17 351.22 70.17 357.87 69.04 C 357.22 68.06 356.50 67.13 355.82 66.18 C 360.26 67.49 367.40 65.75 367.03 60.10 C 365.78 55.22 359.72 57.88 356.38 57.71 C 354.79 55.95 353.46 53.98 351.90 52.19 C 354.62 52.86 356.94 49.79 359.40 51.11 Z" />
<path fill="#95a475" d=" M 290.72 53.84 C 297.19 53.66 304.70 48.59 310.31 51.70 C 306.81 53.35 301.16 52.55 300.04 57.15 C 295.28 55.54 291.15 57.44 287.17 59.72 C 282.05 55.20 285.11 62.02 280.37 63.26 C 274.67 60.46 269.06 75.17 266.73 67.17 C 263.90 68.07 260.50 69.40 263.83 72.25 C 254.84 73.14 251.29 62.08 241.88 64.11 C 237.17 63.77 244.98 66.89 246.74 67.34 C 245.67 73.00 239.20 75.77 234.03 76.59 C 233.26 67.59 223.74 70.75 218.48 73.42 C 216.71 76.52 210.58 73.35 212.96 77.81 C 209.50 76.61 205.97 75.55 202.63 74.06 C 207.17 69.85 214.62 71.80 218.47 66.61 C 222.50 67.63 227.90 65.18 232.62 64.72 C 232.16 57.92 240.13 63.01 244.11 60.36 C 254.49 62.73 265.73 66.88 276.07 62.05 C 280.61 58.75 285.19 55.27 290.72 53.84 Z" />
<path fill="#798655" d=" M 310.31 51.70 C 314.99 51.60 319.37 53.63 323.64 55.32 C 321.51 61.66 330.21 52.88 330.11 58.02 C 331.24 60.59 332.69 56.00 333.51 54.86 C 333.68 57.13 334.82 58.40 337.18 58.08 C 335.99 60.58 334.64 63.03 332.01 60.50 C 325.94 63.45 321.67 56.09 316.68 54.31 C 311.26 55.45 305.58 56.21 300.04 57.15 C 301.16 52.55 306.81 53.35 310.31 51.70 Z" />
<path fill="#56610f" d=" M 347.98 54.06 C 343.63 51.23 349.68 52.56 351.90 52.19 C 353.46 53.98 354.79 55.95 356.38 57.71 C 359.72 57.88 365.78 55.22 367.03 60.10 C 367.40 65.75 360.26 67.49 355.82 66.18 C 348.15 65.32 343.66 72.83 337.67 76.35 C 334.66 79.63 337.89 80.71 341.18 81.25 C 340.36 89.55 330.60 86.76 327.01 92.06 C 326.73 92.17 326.16 92.40 325.88 92.52 C 324.59 92.99 323.32 93.49 322.06 94.02 C 319.68 94.42 317.29 94.75 314.90 94.98 C 324.70 88.90 329.21 78.10 326.81 66.79 C 327.04 66.29 327.50 65.28 327.73 64.78 C 332.87 64.99 337.58 62.10 342.73 62.79 C 341.65 60.11 343.49 59.72 345.84 59.71 C 346.80 57.36 343.90 58.50 342.59 58.16 C 345.36 57.38 351.51 57.56 347.98 54.06 Z" />
<path fill="#c6caad" d=" M 157.83 59.79 C 178.61 55.13 200.59 59.36 221.08 52.95 C 214.02 58.98 204.20 59.43 195.36 59.43 C 177.03 64.70 157.09 62.31 140.04 71.19 C 140.75 77.11 148.26 71.01 152.07 71.94 C 151.87 76.77 143.92 74.07 141.24 75.48 C 127.68 81.62 113.62 86.85 100.82 94.84 C 98.76 96.06 96.47 97.07 95.00 99.04 C 94.39 99.74 93.78 100.43 93.17 101.14 C 87.11 105.19 79.51 106.64 74.91 112.86 C 67.76 117.42 59.88 121.03 51.91 123.94 C 51.93 123.50 51.99 122.61 52.01 122.17 C 56.47 119.79 63.13 118.35 65.16 113.38 C 61.08 112.49 57.64 115.17 53.81 115.96 C 57.31 110.11 65.01 112.34 70.55 111.62 C 79.45 104.67 90.04 100.13 98.21 92.19 C 109.36 84.89 121.39 78.99 132.33 71.33 C 141.40 68.70 148.89 62.62 157.83 59.79 Z" />
<path fill="#5e5d2e" d=" M 300.04 57.15 C 305.58 56.21 311.26 55.45 316.68 54.31 C 321.67 56.09 325.94 63.45 332.01 60.50 C 334.64 63.03 335.99 60.58 337.18 58.08 C 338.97 57.09 340.76 57.96 342.59 58.16 C 343.90 58.50 346.80 57.36 345.84 59.71 C 343.49 59.72 341.65 60.11 342.73 62.79 C 337.58 62.10 332.87 64.99 327.73 64.78 C 327.50 65.28 327.04 66.29 326.81 66.79 C 322.55 72.86 324.55 60.73 318.98 61.36 C 318.52 61.19 317.60 60.87 317.14 60.71 C 311.20 55.10 300.87 58.70 294.75 62.97 C 291.18 66.81 287.55 71.38 287.93 76.98 C 291.51 77.61 295.30 77.36 298.21 75.08 C 296.82 77.67 294.50 81.58 299.18 81.83 C 295.32 81.11 293.29 84.39 291.06 86.85 C 288.10 84.04 287.89 79.35 286.21 75.73 C 285.99 77.57 285.81 79.42 285.67 81.27 C 281.14 70.85 290.54 60.32 300.04 57.15 Z" />
<path fill="#778e4c" d=" M 287.17 59.72 C 291.15 57.44 295.28 55.54 300.04 57.15 C 290.54 60.32 281.14 70.85 285.67 81.27 C 285.79 81.84 286.05 83.00 286.18 83.58 C 285.41 84.46 284.63 85.33 283.85 86.20 C 273.36 85.88 283.01 70.86 274.14 69.12 C 270.83 72.29 266.34 74.00 261.87 74.77 C 259.28 74.46 255.75 78.99 255.60 74.40 C 252.29 74.24 248.96 74.49 245.90 73.03 C 245.01 75.41 248.50 76.97 246.92 79.01 C 241.12 74.94 233.90 80.81 227.67 80.26 C 229.94 79.07 231.09 76.34 234.03 76.59 C 239.20 75.77 245.67 73.00 246.74 67.34 C 244.98 66.89 237.17 63.77 241.88 64.11 C 251.29 62.08 254.84 73.14 263.83 72.25 C 260.50 69.40 263.90 68.07 266.73 67.17 C 269.06 75.17 274.67 60.46 280.37 63.26 C 285.11 62.02 282.05 55.20 287.17 59.72 Z" />
<path fill="#d0ba98" d=" M 380.27 55.75 C 385.84 67.59 375.92 81.36 365.77 86.99 C 372.06 79.08 380.83 70.82 380.07 59.80 C 380.15 58.45 380.21 57.10 380.27 55.75 Z" />
<path fill="#ad8e58" d=" M 294.75 62.97 C 300.87 58.70 311.20 55.10 317.14 60.71 C 313.27 61.89 311.75 66.35 316.45 67.58 L 315.42 67.60 C 313.15 66.59 310.93 65.24 308.34 65.72 C 305.66 63.75 298.78 61.78 303.08 66.93 C 299.93 66.60 295.88 66.62 294.75 62.97 Z" />
<path fill="#a28246" d=" M 379.35 60.27 L 380.07 59.80 C 380.83 70.82 372.06 79.08 365.77 86.99 C 360.91 90.56 355.56 93.32 350.16 95.96 C 347.93 96.60 345.83 97.58 343.93 98.91 C 342.62 99.35 341.29 99.76 339.99 100.20 C 341.63 93.45 351.17 94.11 353.02 87.82 C 343.48 90.49 334.69 95.40 325.96 99.98 C 327.93 97.56 328.42 94.76 325.88 92.52 C 326.16 92.40 326.73 92.17 327.01 92.06 C 329.82 92.14 332.43 91.19 334.95 90.03 C 344.93 84.67 357.01 82.19 365.10 74.10 C 371.63 72.79 375.53 67.80 378.32 62.17 C 378.58 61.70 379.09 60.75 379.35 60.27 Z" />
<path fill="#937322" d=" M 316.45 67.58 C 311.75 66.35 313.27 61.89 317.14 60.71 C 317.60 60.87 318.52 61.19 318.98 61.36 C 324.12 68.81 325.06 80.16 317.90 86.58 C 316.91 81.73 322.99 77.51 319.94 72.83 C 319.87 70.36 319.00 68.31 316.45 67.58 Z" />
<path fill="#58461c" d=" M 318.98 61.36 C 324.55 60.73 322.55 72.86 326.81 66.79 C 329.21 78.10 324.70 88.90 314.90 94.98 C 313.07 96.17 311.37 97.63 309.27 98.34 C 302.84 100.28 306.37 93.36 301.26 95.40 C 298.44 94.17 295.66 92.88 292.86 91.64 C 290.22 89.30 288.46 86.23 286.18 83.58 C 286.05 83.00 285.79 81.84 285.67 81.27 C 285.81 79.42 285.99 77.57 286.21 75.73 C 287.89 79.35 288.10 84.04 291.06 86.85 C 298.49 93.86 310.73 95.65 317.90 86.58 C 325.06 80.16 324.12 68.81 318.98 61.36 Z" />
<path fill="#ac813a" d=" M 287.93 76.98 C 287.55 71.38 291.18 66.81 294.75 62.97 C 295.88 66.62 299.93 66.60 303.08 66.93 C 298.78 61.78 305.66 63.75 308.34 65.72 C 305.61 68.10 299.64 67.79 299.56 72.22 C 299.15 73.19 298.63 74.12 298.21 75.08 C 295.30 77.36 291.51 77.61 287.93 76.98 Z" />
<path fill="#ceb465" d=" M 308.34 65.72 C 310.93 65.24 313.15 66.59 315.42 67.60 C 309.66 67.24 304.55 69.81 299.56 72.22 C 299.64 67.79 305.61 68.10 308.34 65.72 Z" />
<path fill="#708138" d=" M 337.67 76.35 C 343.66 72.83 348.15 65.32 355.82 66.18 C 356.50 67.13 357.22 68.06 357.87 69.04 C 351.22 70.17 345.83 76.17 341.18 81.25 C 337.89 80.71 334.66 79.63 337.67 76.35 Z" />
<path fill="#372718" d=" M 299.56 72.22 C 304.55 69.81 309.66 67.24 315.42 67.60 L 316.45 67.58 C 319.00 68.31 319.87 70.36 319.94 72.83 C 314.81 79.10 307.57 83.75 299.18 81.83 C 294.50 81.58 296.82 77.67 298.21 75.08 C 298.63 74.12 299.15 73.19 299.56 72.22 Z" />
<path fill="#657728" d=" M 261.87 74.77 C 266.34 74.00 270.83 72.29 274.14 69.12 C 283.01 70.86 273.36 85.88 283.85 86.20 C 279.74 88.52 274.72 85.58 270.44 85.08 C 271.85 90.39 264.47 93.28 260.46 90.18 C 258.21 98.15 251.63 103.26 245.93 108.67 C 244.59 110.41 243.40 112.90 241.61 110.09 C 239.57 106.74 239.64 102.56 238.69 98.88 C 234.55 99.64 233.89 110.15 233.12 98.51 C 233.04 98.20 232.88 97.57 232.80 97.25 C 227.31 99.04 220.95 93.60 216.72 98.89 C 216.84 94.09 225.81 89.22 226.52 96.17 C 226.99 90.27 231.90 85.73 238.03 88.86 C 241.88 89.36 239.45 85.89 236.75 87.63 C 236.41 82.63 246.46 78.24 240.90 85.05 C 245.07 83.52 251.64 79.16 253.37 85.76 C 255.02 82.67 257.81 85.33 260.09 86.07 C 256.28 82.47 260.13 78.32 261.87 74.77 Z" />
<path fill="#869661" d=" M 218.48 73.42 C 223.74 70.75 233.26 67.59 234.03 76.59 C 231.09 76.34 229.94 79.07 227.67 80.26 C 226.68 79.90 225.71 79.51 224.76 79.08 C 221.87 78.62 215.48 80.51 219.91 84.04 C 213.65 82.51 207.59 86.10 201.09 83.88 C 203.92 85.60 200.56 89.67 197.96 89.13 C 200.05 86.97 199.81 83.28 196.05 83.74 C 198.67 85.13 196.76 86.69 195.16 87.93 C 192.54 86.81 193.50 82.01 190.13 83.03 C 187.59 83.16 190.04 88.28 187.02 88.14 C 184.26 88.84 179.70 89.12 178.64 85.87 C 181.05 82.93 183.84 81.32 187.11 84.09 C 187.17 81.77 184.53 81.58 183.02 80.56 C 186.13 76.48 193.46 79.44 196.11 74.76 C 196.93 70.79 200.05 74.27 202.63 74.06 C 205.97 75.55 209.50 76.61 212.96 77.81 C 210.58 73.35 216.71 76.52 218.48 73.42 Z" />
<path fill="#99a778" d=" M 154.34 79.32 C 168.70 81.58 181.71 68.78 196.11 74.76 C 193.46 79.44 186.13 76.48 183.02 80.56 C 184.53 81.58 187.17 81.77 187.11 84.09 C 183.84 81.32 181.05 82.93 178.64 85.87 C 173.57 84.70 168.29 86.02 163.16 85.04 C 165.12 91.50 158.17 84.83 156.39 82.67 C 156.46 84.63 158.35 89.84 155.16 86.71 C 153.98 83.61 140.65 83.24 146.92 88.12 C 139.71 86.64 138.60 88.83 144.23 90.84 C 139.41 89.51 135.00 91.74 130.62 93.30 L 129.88 93.16 C 128.36 92.18 126.87 91.14 125.43 90.03 C 127.90 85.56 134.38 87.40 137.93 84.02 C 143.27 79.07 150.20 84.76 154.34 79.32 Z" />
<path fill="#6b7d39" d=" M 245.90 73.03 C 248.96 74.49 252.29 74.24 255.60 74.40 C 255.75 78.99 259.28 74.46 261.87 74.77 C 260.13 78.32 256.28 82.47 260.09 86.07 C 257.81 85.33 255.02 82.67 253.37 85.76 C 251.64 79.16 245.07 83.52 240.90 85.05 C 246.46 78.24 236.41 82.63 236.75 87.63 C 239.45 85.89 241.88 89.36 238.03 88.86 C 231.90 85.73 226.99 90.27 226.52 96.17 C 225.81 89.22 216.84 94.09 216.72 98.89 C 220.95 93.60 227.31 99.04 232.80 97.25 C 232.88 97.57 233.04 98.20 233.12 98.51 C 230.29 98.82 231.35 101.95 230.96 103.92 C 230.16 106.32 227.89 105.86 226.08 104.92 C 226.87 102.82 228.09 100.92 229.06 98.90 C 226.07 98.26 226.11 101.72 223.89 102.56 C 216.44 100.78 208.52 100.09 201.24 103.08 C 201.39 104.48 204.29 108.29 201.29 106.82 C 199.69 105.31 198.42 103.11 195.79 102.99 C 198.89 95.21 184.28 103.43 183.54 98.25 C 189.21 97.65 187.37 94.46 184.71 91.08 C 187.83 90.53 191.09 94.06 193.91 91.65 C 198.06 93.07 202.33 95.27 206.83 94.09 C 202.44 91.15 209.89 86.20 212.94 88.56 C 214.63 84.95 225.49 83.88 217.95 86.49 C 221.33 89.56 226.16 87.15 228.89 84.42 C 227.72 82.49 226.11 80.88 224.76 79.08 C 225.71 79.51 226.68 79.90 227.67 80.26 C 233.90 80.81 241.12 74.94 246.92 79.01 C 248.50 76.97 245.01 75.41 245.90 73.03 Z" />
<path fill="#af8a39" d=" M 299.18 81.83 C 307.57 83.75 314.81 79.10 319.94 72.83 C 322.99 77.51 316.91 81.73 317.90 86.58 C 310.73 95.65 298.49 93.86 291.06 86.85 C 293.29 84.39 295.32 81.11 299.18 81.83 Z" />
<path fill="#74874a" d=" M 219.91 84.04 C 215.48 80.51 221.87 78.62 224.76 79.08 C 226.11 80.88 227.72 82.49 228.89 84.42 C 226.16 87.15 221.33 89.56 217.95 86.49 C 225.49 83.88 214.63 84.95 212.94 88.56 C 209.89 86.20 202.44 91.15 206.83 94.09 C 202.33 95.27 198.06 93.07 193.91 91.65 C 191.09 94.06 187.83 90.53 184.71 91.08 C 187.37 94.46 189.21 97.65 183.54 98.25 C 184.28 103.43 198.89 95.21 195.79 102.99 C 188.07 106.42 176.49 111.06 169.94 103.21 C 169.43 103.45 168.40 103.94 167.89 104.19 C 166.13 102.55 163.73 99.00 163.81 103.76 C 162.34 102.46 158.76 101.03 159.63 104.41 C 159.99 108.35 157.22 103.46 156.77 102.03 C 154.12 103.58 148.37 103.72 149.70 107.94 C 142.51 105.54 134.57 110.63 128.22 107.01 C 131.19 103.90 129.54 99.19 125.18 98.84 C 127.40 105.16 118.02 99.82 114.61 101.39 C 111.11 101.16 108.47 103.75 105.19 104.47 C 105.24 109.27 107.76 114.48 106.30 119.18 C 104.87 121.49 105.14 118.05 104.72 117.01 C 100.86 119.95 93.02 120.80 96.35 127.85 C 96.72 133.00 95.63 146.72 88.29 141.70 C 83.51 135.54 71.97 137.80 70.50 129.20 C 68.21 129.38 65.95 129.73 63.71 130.24 C 61.05 130.15 58.59 129.08 56.75 127.15 C 63.73 131.42 69.30 124.18 75.97 122.82 C 76.29 126.61 75.30 130.28 74.97 134.02 C 78.55 134.85 81.56 132.95 84.79 132.06 C 86.26 133.42 86.23 137.15 88.67 136.72 C 94.79 128.24 93.48 117.03 95.23 107.23 C 103.87 103.38 111.27 94.35 121.84 96.88 C 118.97 93.63 120.95 93.14 124.22 92.31 C 127.16 94.21 131.27 99.89 129.88 93.16 L 130.62 93.30 C 132.91 96.00 143.38 101.97 134.76 101.29 C 137.26 102.84 140.11 103.67 142.98 104.22 C 140.94 102.27 135.69 97.09 145.01 100.00 C 149.88 99.94 144.44 95.63 141.84 96.36 C 143.40 94.24 147.82 95.31 146.35 91.34 C 150.38 92.68 151.74 87.81 155.16 86.71 C 158.35 89.84 156.46 84.63 156.39 82.67 C 158.17 84.83 165.12 91.50 163.16 85.04 C 168.29 86.02 173.57 84.70 178.64 85.87 C 179.70 89.12 184.26 88.84 187.02 88.14 C 190.04 88.28 187.59 83.16 190.13 83.03 C 193.50 82.01 192.54 86.81 195.16 87.93 C 196.76 86.69 198.67 85.13 196.05 83.74 C 199.81 83.28 200.05 86.97 197.96 89.13 C 200.56 89.67 203.92 85.60 201.09 83.88 C 207.59 86.10 213.65 82.51 219.91 84.04 Z" />
<path fill="#5b6428" d=" M 283.85 86.20 C 284.63 85.33 285.41 84.46 286.18 83.58 C 288.46 86.23 290.22 89.30 292.86 91.64 C 291.78 95.21 298.49 96.54 301.26 95.40 C 306.37 93.36 302.84 100.28 309.27 98.34 C 305.94 99.63 302.53 100.68 299.10 101.63 C 294.30 99.32 286.64 102.56 283.87 97.07 C 282.48 95.72 281.60 95.95 281.84 98.07 C 278.04 87.93 263.65 93.83 260.72 101.86 C 255.44 103.86 252.59 109.13 249.96 114.45 C 249.44 111.91 249.55 108.21 245.93 108.67 C 251.63 103.26 258.21 98.15 260.46 90.18 C 264.47 93.28 271.85 90.39 270.44 85.08 C 274.72 85.58 279.74 88.52 283.85 86.20 Z" />
<path fill="#80915a" d=" M 146.92 88.12 C 140.65 83.24 153.98 83.61 155.16 86.71 C 151.74 87.81 150.38 92.68 146.35 91.34 C 147.82 95.31 143.40 94.24 141.84 96.36 C 144.44 95.63 149.88 99.94 145.01 100.00 C 135.69 97.09 140.94 102.27 142.98 104.22 C 140.11 103.67 137.26 102.84 134.76 101.29 C 143.38 101.97 132.91 96.00 130.62 93.30 C 135.00 91.74 139.41 89.51 144.23 90.84 C 138.60 88.83 139.71 86.64 146.92 88.12 Z" />
<path fill="#776836" d=" M 325.96 99.98 C 334.69 95.40 343.48 90.49 353.02 87.82 C 351.17 94.11 341.63 93.45 339.99 100.20 C 334.63 103.27 329.07 105.97 323.76 109.11 C 321.74 110.14 319.70 111.14 317.63 112.07 C 313.93 112.87 310.19 114.31 308.14 117.72 C 298.90 119.80 290.81 124.11 281.53 126.25 C 280.00 124.56 278.45 122.88 276.88 121.23 C 280.93 120.45 285.25 120.16 288.79 117.78 C 300.11 109.82 313.48 105.70 325.96 99.98 Z" />
<path fill="#9eab7b" d=" M 100.82 94.84 C 108.51 95.53 115.26 90.76 122.36 89.63 C 114.92 96.47 104.55 97.65 95.00 99.04 C 96.47 97.07 98.76 96.06 100.82 94.84 Z" />
<path fill="#83965c" d=" M 95.00 99.04 C 104.55 97.65 114.92 96.47 122.36 89.63 C 123.38 89.76 124.41 89.89 125.43 90.03 C 126.87 91.14 128.36 92.18 129.88 93.16 C 131.27 99.89 127.16 94.21 124.22 92.31 C 120.95 93.14 118.97 93.63 121.84 96.88 C 111.27 94.35 103.87 103.38 95.23 107.23 C 93.48 117.03 94.79 128.24 88.67 136.72 C 86.23 137.15 86.26 133.42 84.79 132.06 C 81.56 132.95 78.55 134.85 74.97 134.02 C 75.30 130.28 76.29 126.61 75.97 122.82 C 69.30 124.18 63.73 131.42 56.75 127.15 C 55.27 127.04 54.16 128.36 52.88 128.92 C 50.26 127.14 48.86 130.99 48.69 133.06 C 47.79 131.57 47.20 129.91 46.67 128.26 C 48.01 127.43 49.35 126.59 50.74 125.85 C 57.70 124.58 66.70 125.70 71.68 119.66 C 78.63 113.03 90.37 111.68 93.17 101.14 C 93.78 100.43 94.39 99.74 95.00 99.04 Z" />
<path fill="#86875c" d=" M 260.72 101.86 C 263.65 93.83 278.04 87.93 281.84 98.07 C 282.63 100.32 283.30 102.67 283.13 105.09 C 278.11 108.10 275.28 99.51 269.70 101.29 C 267.42 100.40 266.37 101.30 267.13 103.65 C 273.03 103.01 271.67 110.40 270.92 113.98 C 264.67 114.30 258.81 108.54 260.72 101.86 Z" />
<path fill="#888869" d=" M 301.26 95.40 C 298.49 96.54 291.78 95.21 292.86 91.64 C 295.66 92.88 298.44 94.17 301.26 95.40 Z" />
<path fill="#c3ad65" d=" M 322.06 94.02 C 323.32 93.49 324.59 92.99 325.88 92.52 C 328.42 94.76 327.93 97.56 325.96 99.98 C 313.48 105.70 300.11 109.82 288.79 117.78 C 285.25 120.16 280.93 120.45 276.88 121.23 C 270.63 123.18 266.51 130.16 259.24 129.32 C 254.26 131.47 249.15 127.91 250.88 122.96 C 259.98 122.13 270.28 120.93 276.43 113.36 C 278.39 113.21 280.66 114.16 282.15 112.40 C 287.08 109.27 291.95 106.05 296.87 102.91 C 305.96 103.38 315.27 100.09 322.06 94.02 Z" />
<path fill="#af923c" d=" M 314.90 94.98 C 317.29 94.75 319.68 94.42 322.06 94.02 C 315.27 100.09 305.96 103.38 296.87 102.91 C 297.42 102.59 298.54 101.95 299.10 101.63 C 302.53 100.68 305.94 99.63 309.27 98.34 C 311.37 97.63 313.07 96.17 314.90 94.98 Z" />
<path fill="#4d490f" d=" M 281.84 98.07 C 281.60 95.95 282.48 95.72 283.87 97.07 C 286.64 102.56 294.30 99.32 299.10 101.63 C 298.54 101.95 297.42 102.59 296.87 102.91 C 291.95 106.05 287.08 109.27 282.15 112.40 C 277.99 112.10 282.77 107.44 283.13 105.09 C 283.30 102.67 282.63 100.32 281.84 98.07 Z" />
<path fill="#cebfa1" d=" M 343.93 98.91 C 345.83 97.58 347.93 96.60 350.16 95.96 C 348.69 97.97 346.40 98.99 343.93 98.91 Z" />
<path fill="#698038" d=" M 125.18 98.84 C 129.54 99.19 131.19 103.90 128.22 107.01 C 134.57 110.63 142.51 105.54 149.70 107.94 C 148.37 103.72 154.12 103.58 156.77 102.03 C 157.22 103.46 159.99 108.35 159.63 104.41 C 158.76 101.03 162.34 102.46 163.81 103.76 C 163.73 99.00 166.13 102.55 167.89 104.19 C 167.89 109.41 160.13 108.25 158.66 110.61 C 162.27 116.51 154.42 109.79 152.64 113.50 C 150.98 118.77 141.93 119.07 139.26 114.77 C 133.17 107.18 122.36 113.42 115.45 116.56 C 111.17 118.28 112.16 123.31 112.93 126.87 C 107.90 133.13 110.89 142.18 109.68 149.63 C 105.44 154.30 99.74 149.47 94.70 149.07 C 87.75 144.16 80.23 140.11 72.57 136.37 C 70.50 133.16 67.69 130.64 63.71 130.24 C 65.95 129.73 68.21 129.38 70.50 129.20 C 71.97 137.80 83.51 135.54 88.29 141.70 C 95.63 146.72 96.72 133.00 96.35 127.85 C 93.02 120.80 100.86 119.95 104.72 117.01 C 105.14 118.05 104.87 121.49 106.30 119.18 C 107.76 114.48 105.24 109.27 105.19 104.47 C 108.47 103.75 111.11 101.16 114.61 101.39 C 118.02 99.82 127.40 105.16 125.18 98.84 Z" />
<path fill="#5d7325" d=" M 223.89 102.56 C 226.11 101.72 226.07 98.26 229.06 98.90 C 228.09 100.92 226.87 102.82 226.08 104.92 C 227.89 105.86 230.16 106.32 230.96 103.92 C 230.77 107.70 229.09 111.21 228.79 114.99 C 224.72 117.56 224.22 113.42 223.67 110.16 C 221.35 110.14 222.05 114.17 218.78 112.43 C 220.91 114.63 224.15 117.96 218.91 116.06 C 222.79 118.13 227.02 131.24 220.59 126.86 C 221.35 122.48 219.01 116.61 213.80 116.97 C 212.59 114.05 211.61 110.72 208.27 113.60 C 207.78 106.09 199.59 107.95 195.66 111.80 C 191.19 115.11 185.82 111.86 180.99 111.94 C 180.32 114.50 183.27 113.80 184.82 114.36 C 187.17 119.11 179.15 113.57 181.54 118.33 C 180.91 120.26 175.13 115.80 175.28 120.33 C 173.33 123.17 181.61 128.83 176.17 128.70 C 170.77 125.98 176.50 138.75 177.83 132.75 C 181.87 130.94 182.87 141.53 187.93 136.93 C 191.51 134.33 188.26 139.66 189.78 141.40 C 190.10 142.32 190.45 143.23 190.83 144.13 C 188.35 142.35 186.01 140.40 183.46 138.74 C 183.52 140.21 184.30 142.09 182.53 142.82 C 181.15 138.42 176.92 141.02 173.99 141.97 C 166.67 139.10 158.90 138.43 151.17 137.21 C 150.28 139.55 153.40 142.35 148.28 142.23 C 150.28 137.78 147.06 140.20 144.35 140.84 C 142.26 135.53 135.08 135.33 131.89 139.70 C 131.51 145.58 127.77 150.63 126.35 156.34 C 124.30 162.24 115.79 150.59 115.07 157.68 C 125.13 157.98 127.85 170.11 137.91 170.64 C 142.08 169.52 140.78 176.74 144.99 176.06 C 148.09 176.56 147.64 172.11 150.07 171.04 C 153.88 169.69 147.48 165.76 151.28 164.15 C 162.98 162.40 150.22 168.85 154.13 172.84 C 156.65 176.04 160.90 178.21 161.40 182.71 C 157.03 184.04 152.64 183.60 148.25 183.06 C 146.96 185.88 145.83 189.11 142.02 188.04 C 145.75 182.34 142.49 174.92 135.61 173.55 C 128.25 171.36 122.49 166.05 116.94 161.05 C 111.76 160.77 108.20 157.22 103.92 155.05 C 97.69 157.29 91.12 153.33 87.39 148.47 C 82.65 141.40 72.31 141.33 68.32 133.85 C 62.73 134.32 57.55 131.92 52.88 128.92 C 54.16 128.36 55.27 127.04 56.75 127.15 C 58.59 129.08 61.05 130.15 63.71 130.24 C 67.69 130.64 70.50 133.16 72.57 136.37 C 80.23 140.11 87.75 144.16 94.70 149.07 C 99.74 149.47 105.44 154.30 109.68 149.63 C 110.89 142.18 107.90 133.13 112.93 126.87 C 112.16 123.31 111.17 118.28 115.45 116.56 C 122.36 113.42 133.17 107.18 139.26 114.77 C 141.93 119.07 150.98 118.77 152.64 113.50 C 154.42 109.79 162.27 116.51 158.66 110.61 C 160.13 108.25 167.89 109.41 167.89 104.19 C 168.40 103.94 169.43 103.45 169.94 103.21 C 176.49 111.06 188.07 106.42 195.79 102.99 C 198.42 103.11 199.69 105.31 201.29 106.82 C 204.29 108.29 201.39 104.48 201.24 103.08 C 208.52 100.09 216.44 100.78 223.89 102.56 Z" />
<path fill="#526511" d=" M 230.96 103.92 C 231.35 101.95 230.29 98.82 233.12 98.51 C 233.89 110.15 234.55 99.64 238.69 98.88 C 239.64 102.56 239.57 106.74 241.61 110.09 C 237.53 113.86 238.68 122.69 232.47 125.61 C 229.52 123.08 221.96 125.47 225.09 118.73 C 227.46 120.16 229.35 122.47 232.13 123.14 C 231.16 120.23 227.95 118.53 228.79 114.99 C 229.09 111.21 230.77 107.70 230.96 103.92 Z" />
<path fill="#c7b385" d=" M 339.99 100.20 C 341.29 99.76 342.62 99.35 343.93 98.91 C 342.00 102.32 339.35 105.26 336.33 107.73 C 331.94 105.46 325.91 116.58 323.76 109.11 C 329.07 105.97 334.63 103.27 339.99 100.20 Z" />
<path fill="#a1af80" d=" M 74.91 112.86 C 79.51 106.64 87.11 105.19 93.17 101.14 C 90.37 111.68 78.63 113.03 71.68 119.66 C 66.70 125.70 57.70 124.58 50.74 125.85 C 51.03 125.37 51.61 124.42 51.91 123.94 C 59.88 121.03 67.76 117.42 74.91 112.86 Z" />
<path fill="#757340" d=" M 267.13 103.65 C 266.37 101.30 267.42 100.40 269.70 101.29 C 275.28 99.51 278.11 108.10 283.13 105.09 C 282.77 107.44 277.99 112.10 282.15 112.40 C 280.66 114.16 278.39 113.21 276.43 113.36 C 270.28 120.93 259.98 122.13 250.88 122.96 L 250.21 123.02 C 250.18 120.11 248.60 117.37 249.96 114.45 C 252.59 109.13 255.44 103.86 260.72 101.86 C 258.81 108.54 264.67 114.30 270.92 113.98 C 271.67 110.40 273.03 103.01 267.13 103.65 Z" />
<path fill="#c69f63" d=" M 323.76 109.11 C 325.91 116.58 331.94 105.46 336.33 107.73 C 332.84 110.46 330.14 114.01 327.62 117.62 C 326.67 118.29 325.72 118.97 324.83 119.71 C 318.75 126.43 310.97 130.85 302.31 133.31 C 297.97 138.98 295.55 147.57 286.94 147.78 C 283.61 147.50 284.17 139.55 279.64 142.57 C 275.63 143.46 278.09 147.43 278.20 150.16 C 277.88 151.16 277.49 152.14 277.05 153.10 C 277.69 149.00 274.59 145.91 274.12 142.19 C 280.03 134.22 293.40 137.79 298.96 129.76 C 302.36 128.12 306.00 126.97 309.30 125.12 C 313.89 121.93 318.68 118.98 323.04 115.47 C 321.08 114.66 318.43 114.38 317.63 112.07 C 319.70 111.14 321.74 110.14 323.76 109.11 Z" />
<path fill="#4b610b" d=" M 195.66 111.80 C 199.59 107.95 207.78 106.09 208.27 113.60 C 211.61 110.72 212.59 114.05 213.80 116.97 C 214.24 120.48 224.09 123.52 212.86 122.23 C 213.77 125.25 215.61 127.92 216.43 130.99 C 208.37 129.01 201.51 135.09 193.95 136.85 C 191.56 137.17 190.79 139.59 189.78 141.40 C 188.26 139.66 191.51 134.33 187.93 136.93 C 182.87 141.53 181.87 130.94 177.83 132.75 C 176.50 138.75 170.77 125.98 176.17 128.70 C 181.61 128.83 173.33 123.17 175.28 120.33 C 175.13 115.80 180.91 120.26 181.54 118.33 C 179.15 113.57 187.17 119.11 184.82 114.36 C 183.27 113.80 180.32 114.50 180.99 111.94 C 185.82 111.86 191.19 115.11 195.66 111.80 Z" />
<path fill="#e8d3b1" d=" M 327.62 117.62 C 330.14 114.01 332.84 110.46 336.33 107.73 C 332.92 113.15 332.61 120.36 328.11 124.98 C 328.68 122.52 328.04 120.05 327.62 117.62 Z" />
<path fill="#4d4e0f" d=" M 241.61 110.09 C 243.40 112.90 244.59 110.41 245.93 108.67 C 249.55 108.21 249.44 111.91 249.96 114.45 C 248.60 117.37 250.18 120.11 250.21 123.02 C 241.80 128.08 232.18 130.36 222.95 133.42 C 221.56 128.82 229.75 127.63 232.47 125.61 C 238.68 122.69 237.53 113.86 241.61 110.09 Z" />
<path fill="#6b773b" d=" M 218.78 112.43 C 222.05 114.17 221.35 110.14 223.67 110.16 C 224.22 113.42 224.72 117.56 228.79 114.99 C 227.95 118.53 231.16 120.23 232.13 123.14 C 229.35 122.47 227.46 120.16 225.09 118.73 C 221.96 125.47 229.52 123.08 232.47 125.61 C 229.75 127.63 221.56 128.82 222.95 133.42 C 221.55 133.62 218.74 134.03 217.34 134.24 C 217.05 133.15 216.74 132.07 216.43 130.99 C 215.61 127.92 213.77 125.25 212.86 122.23 C 224.09 123.52 214.24 120.48 213.80 116.97 C 219.01 116.61 221.35 122.48 220.59 126.86 C 227.02 131.24 222.79 118.13 218.91 116.06 C 224.15 117.96 220.91 114.63 218.78 112.43 Z" />
<path fill="#9a863a" d=" M 308.14 117.72 C 310.19 114.31 313.93 112.87 317.63 112.07 C 318.43 114.38 321.08 114.66 323.04 115.47 C 318.68 118.98 313.89 121.93 309.30 125.12 C 309.76 122.58 309.09 120.07 308.14 117.72 Z" />
<path fill="#bca376" d=" M 53.81 115.96 C 57.64 115.17 61.08 112.49 65.16 113.38 C 63.13 118.35 56.47 119.79 52.01 122.17 C 51.99 119.96 52.08 117.58 53.81 115.96 Z" />
<path fill="#80701a" d=" M 281.53 126.25 C 290.81 124.11 298.90 119.80 308.14 117.72 C 309.09 120.07 309.76 122.58 309.30 125.12 C 306.00 126.97 302.36 128.12 298.96 129.76 C 290.02 131.28 281.45 138.33 272.29 135.85 C 271.01 134.60 269.69 133.31 267.96 132.72 C 272.80 131.42 277.42 129.07 281.53 126.25 Z" />
<path fill="#dabd8f" d=" M 324.83 119.71 C 325.72 118.97 326.67 118.29 327.62 117.62 C 328.04 120.05 328.68 122.52 328.11 124.98 C 323.50 128.47 320.06 133.09 316.71 137.75 C 312.03 145.27 302.21 145.60 296.44 151.71 C 294.54 152.16 292.66 152.67 290.85 153.38 C 289.00 154.04 287.21 154.84 285.53 155.85 C 283.77 156.83 282.16 158.04 280.47 159.11 C 279.06 157.25 276.71 155.74 277.05 153.10 C 277.49 152.14 277.88 151.16 278.20 150.16 C 278.96 148.00 278.58 145.05 280.84 143.90 C 282.94 146.52 283.04 153.06 287.65 151.69 C 302.78 147.94 311.01 133.55 323.21 125.27 C 324.45 123.76 324.30 121.54 324.83 119.71 Z" />
<path fill="#ddd3b8" d=" M 25.89 120.76 C 34.23 114.78 38.84 128.22 46.67 128.26 C 47.20 129.91 47.79 131.57 48.69 133.06 C 49.45 134.41 50.29 135.72 51.08 137.05 C 51.53 138.04 51.98 139.02 52.42 140.02 C 49.07 141.79 48.38 134.91 45.61 133.37 C 38.99 129.38 34.51 120.30 25.89 120.76 Z" />
<path fill="#d4ae77" d=" M 302.31 133.31 C 310.97 130.85 318.75 126.43 324.83 119.71 C 324.30 121.54 324.45 123.76 323.21 125.27 C 311.01 133.55 302.78 147.94 287.65 151.69 C 283.04 153.06 282.94 146.52 280.84 143.90 C 278.58 145.05 278.96 148.00 278.20 150.16 C 278.09 147.43 275.63 143.46 279.64 142.57 C 284.17 139.55 283.61 147.50 286.94 147.78 C 295.55 147.57 297.97 138.98 302.31 133.31 Z" />
<path fill="#b2bc9d" d=" M 23.82 122.62 C 24.47 121.96 25.16 121.34 25.89 120.76 C 34.51 120.30 38.99 129.38 45.61 133.37 C 48.38 134.91 49.07 141.79 52.42 140.02 C 52.75 140.34 53.40 141.00 53.73 141.32 C 54.04 142.32 54.38 143.31 54.75 144.29 C 57.48 151.69 61.97 158.31 64.54 165.77 C 63.78 174.51 54.69 166.71 52.10 162.91 C 44.29 153.55 39.10 142.47 34.79 131.14 C 33.40 126.29 27.72 124.83 23.82 122.62 Z" />
<path fill="#5f5619" d=" M 259.24 129.32 C 266.51 130.16 270.63 123.18 276.88 121.23 C 278.45 122.88 280.00 124.56 281.53 126.25 C 277.42 129.07 272.80 131.42 267.96 132.72 C 260.81 135.03 254.74 139.56 248.67 143.84 C 244.58 143.30 241.08 145.35 237.23 146.03 C 236.19 144.30 236.01 141.14 233.24 142.12 C 228.04 146.82 228.04 154.82 222.44 159.42 C 223.68 166.23 213.93 177.92 208.04 170.80 C 207.39 168.18 207.73 165.09 206.29 162.78 C 203.70 161.63 199.84 161.35 198.95 158.13 C 202.45 157.05 206.08 157.83 209.56 157.63 C 214.84 150.59 226.33 151.61 229.00 142.07 C 228.19 141.96 226.57 141.73 225.76 141.62 C 234.27 140.31 241.76 133.89 250.68 135.64 C 253.52 133.35 254.98 129.26 259.24 129.32 Z" />
<path fill="#9eae88" d=" M 13.73 133.88 C 16.51 129.64 20.21 126.13 23.82 122.62 C 27.72 124.83 33.40 126.29 34.79 131.14 C 39.10 142.47 44.29 153.55 52.10 162.91 C 54.69 166.71 63.78 174.51 64.54 165.77 C 69.39 177.23 74.37 188.27 77.06 200.49 C 77.41 204.20 76.62 204.21 74.88 201.16 C 74.67 200.87 74.25 200.31 74.04 200.03 C 69.23 188.16 57.89 181.37 51.27 170.78 C 46.19 164.00 43.30 155.77 37.01 149.96 C 34.64 143.28 32.83 136.52 31.33 129.68 C 29.33 127.70 23.64 121.91 22.68 127.27 C 21.80 131.12 16.06 130.69 13.73 133.88 Z" />
<path fill="#b18c41" d=" M 222.95 133.42 C 232.18 130.36 241.80 128.08 250.21 123.02 L 250.88 122.96 C 249.15 127.91 254.26 131.47 259.24 129.32 C 254.98 129.26 253.52 133.35 250.68 135.64 C 241.76 133.89 234.27 140.31 225.76 141.62 C 214.55 145.04 203.91 150.85 192.05 152.14 C 195.27 149.85 200.73 148.53 201.16 144.04 C 196.13 141.25 194.61 150.07 190.84 144.88 L 190.83 144.13 C 199.58 140.60 208.23 136.76 217.34 134.24 C 218.74 134.03 221.55 133.62 222.95 133.42 Z" />
<path fill="#8f9e6d" d=" M 22.68 127.27 C 23.64 121.91 29.33 127.70 31.33 129.68 C 32.83 136.52 34.64 143.28 37.01 149.96 C 43.30 155.77 46.19 164.00 51.27 170.78 C 57.89 181.37 69.23 188.16 74.04 200.03 C 65.30 195.63 61.75 185.59 53.90 180.06 C 49.00 176.52 47.48 169.58 42.01 166.91 C 42.12 170.32 42.53 173.70 42.78 177.11 C 38.38 171.23 39.02 163.33 36.53 156.60 C 35.90 154.81 35.37 150.02 33.10 153.25 C 31.67 160.77 35.75 167.63 35.97 175.02 C 30.86 175.77 30.48 169.02 30.43 165.34 C 26.98 160.78 24.79 155.60 22.75 150.28 C 21.02 147.20 17.90 150.12 16.86 152.25 C 16.64 151.92 16.20 151.26 15.98 150.93 C 15.56 150.04 15.17 149.14 14.81 148.23 C 16.47 143.40 13.49 139.59 12.82 135.16 C 13.05 134.84 13.50 134.20 13.73 133.88 C 16.06 130.69 21.80 131.12 22.68 127.27 Z" />
<path fill="#576518" d=" M 48.69 133.06 C 48.86 130.99 50.26 127.14 52.88 128.92 C 57.55 131.92 62.73 134.32 68.32 133.85 C 72.31 141.33 82.65 141.40 87.39 148.47 C 91.12 153.33 97.69 157.29 103.92 155.05 C 108.20 157.22 111.76 160.77 116.94 161.05 C 122.49 166.05 128.25 171.36 135.61 173.55 C 142.49 174.92 145.75 182.34 142.02 188.04 C 136.69 187.92 131.75 189.61 128.00 193.43 C 125.76 192.93 123.54 192.34 121.33 191.73 C 116.89 183.25 108.67 174.22 98.23 175.10 C 95.71 178.60 99.82 183.67 100.33 187.72 C 98.73 194.37 99.16 201.28 98.71 208.06 C 98.16 205.26 97.47 202.49 96.00 200.03 C 95.51 185.73 87.39 173.47 80.69 161.35 C 81.54 149.24 64.36 145.88 54.75 144.29 C 54.38 143.31 54.04 142.32 53.73 141.32 C 57.95 138.18 55.79 134.86 51.08 137.05 C 50.29 135.72 49.45 134.41 48.69 133.06 Z" />
<path fill="#43470c" d=" M 193.95 136.85 C 201.51 135.09 208.37 129.01 216.43 130.99 C 216.74 132.07 217.05 133.15 217.34 134.24 C 208.23 136.76 199.58 140.60 190.83 144.13 C 190.45 143.23 190.10 142.32 189.78 141.40 C 190.79 139.59 191.56 137.17 193.95 136.85 Z" />
<path fill="#a7843a" d=" M 272.29 135.85 C 281.45 138.33 290.02 131.28 298.96 129.76 C 293.40 137.79 280.03 134.22 274.12 142.19 C 274.59 145.91 277.69 149.00 277.05 153.10 C 277.46 160.30 271.87 164.89 267.21 169.36 C 268.91 162.38 278.70 156.12 273.39 148.47 C 271.68 144.58 268.05 139.35 272.29 135.85 Z" />
<path fill="#8c5c1c" d=" M 248.67 143.84 C 254.74 139.56 260.81 135.03 267.96 132.72 C 269.69 133.31 271.01 134.60 272.29 135.85 C 268.05 139.35 271.68 144.58 273.39 148.47 C 272.37 150.04 271.44 151.69 270.22 153.12 C 272.18 140.05 255.71 145.64 253.92 154.37 C 247.17 153.30 257.21 144.78 249.37 144.62 L 248.67 143.84 Z" />
<path fill="#c2b89d" d=" M 14.81 148.23 C 13.53 144.06 12.15 139.42 12.82 135.16 C 13.49 139.59 16.47 143.40 14.81 148.23 Z" />
<path fill="#80834b" d=" M 51.08 137.05 C 55.79 134.86 57.95 138.18 53.73 141.32 C 53.40 141.00 52.75 140.34 52.42 140.02 C 51.98 139.02 51.53 138.04 51.08 137.05 Z" />
<path fill="#68783b" d=" M 131.89 139.70 C 135.08 135.33 142.26 135.53 144.35 140.84 C 147.06 140.20 150.28 137.78 148.28 142.23 C 153.40 142.35 150.28 139.55 151.17 137.21 C 158.90 138.43 166.67 139.10 173.99 141.97 C 176.92 141.02 181.15 138.42 182.53 142.82 C 184.30 142.09 183.52 140.21 183.46 138.74 C 186.01 140.40 188.35 142.35 190.83 144.13 L 190.84 144.88 C 185.41 148.15 179.00 148.97 173.17 151.28 C 169.88 151.78 168.96 148.95 168.54 146.33 C 162.70 144.18 155.38 139.36 149.61 144.64 C 150.15 149.60 156.01 153.60 157.15 159.07 C 153.66 164.19 161.16 162.67 164.42 162.00 C 167.36 164.94 171.00 167.07 174.47 169.34 C 181.66 167.60 177.41 173.15 179.03 175.97 C 180.35 178.28 181.74 181.97 185.01 180.39 C 186.57 181.31 188.73 181.97 188.96 184.07 C 179.47 186.56 169.86 184.53 160.42 186.31 C 160.98 185.17 162.18 184.04 161.40 182.71 C 160.90 178.21 156.65 176.04 154.13 172.84 C 150.22 168.85 162.98 162.40 151.28 164.15 C 147.48 165.76 153.88 169.69 150.07 171.04 C 147.64 172.11 148.09 176.56 144.99 176.06 C 140.78 176.74 142.08 169.52 137.91 170.64 C 127.85 170.11 125.13 157.98 115.07 157.68 C 115.79 150.59 124.30 162.24 126.35 156.34 C 127.77 150.63 131.51 145.58 131.89 139.70 Z" />
<path fill="#747e4e" d=" M 149.61 144.64 C 155.38 139.36 162.70 144.18 168.54 146.33 C 168.96 148.95 169.88 151.78 173.17 151.28 C 167.21 152.63 160.83 153.69 157.15 159.07 C 156.01 153.60 150.15 149.60 149.61 144.64 Z" />
<path fill="#4e4618" d=" M 192.05 152.14 C 203.91 150.85 214.55 145.04 225.76 141.62 C 226.57 141.73 228.19 141.96 229.00 142.07 C 226.33 151.61 214.84 150.59 209.56 157.63 C 206.08 157.83 202.45 157.05 198.95 158.13 C 198.10 151.92 191.14 160.07 188.54 153.97 C 189.70 153.34 190.88 152.74 192.05 152.14 Z" />
<path fill="#73672b" d=" M 233.24 142.12 C 236.01 141.14 236.19 144.30 237.23 146.03 C 241.08 145.35 244.58 143.30 248.67 143.84 L 249.37 144.62 C 246.31 150.07 238.12 145.44 234.66 150.52 C 232.02 152.56 229.38 154.73 227.87 157.79 C 224.60 162.47 222.27 167.69 219.69 172.76 C 212.08 181.77 198.30 179.81 188.96 184.07 C 188.73 181.97 186.57 181.31 185.01 180.39 C 193.12 178.38 199.15 170.67 208.04 170.80 C 213.93 177.92 223.68 166.23 222.44 159.42 C 228.04 154.82 228.04 146.82 233.24 142.12 Z" />
<path fill="#74864b" d=" M 54.75 144.29 C 64.36 145.88 81.54 149.24 80.69 161.35 C 87.39 173.47 95.51 185.73 96.00 200.03 L 95.80 201.13 C 92.73 191.72 89.81 181.13 84.00 172.82 C 77.74 163.71 74.21 149.54 60.79 149.07 C 62.93 158.34 70.79 164.88 72.94 174.09 C 75.92 179.66 77.08 185.87 78.70 191.92 C 78.29 194.85 79.92 198.39 77.06 200.49 C 74.37 188.27 69.39 177.23 64.54 165.77 C 61.97 158.31 57.48 151.69 54.75 144.29 Z" />
<path fill="#c4a666" d=" M 190.84 144.88 C 194.61 150.07 196.13 141.25 201.16 144.04 C 200.73 148.53 195.27 149.85 192.05 152.14 C 190.88 152.74 189.70 153.34 188.54 153.97 C 181.27 158.75 171.73 157.32 164.42 162.00 C 161.16 162.67 153.66 164.19 157.15 159.07 C 160.83 153.69 167.21 152.63 173.17 151.28 C 179.00 148.97 185.41 148.15 190.84 144.88 Z" />
<path fill="#8f6840" d=" M 249.37 144.62 C 257.21 144.78 247.17 153.30 253.92 154.37 C 251.64 158.68 251.90 164.58 246.78 166.87 C 247.49 162.03 251.52 157.33 248.82 152.41 C 243.77 153.10 239.42 152.01 234.66 150.52 C 238.12 145.44 246.31 150.07 249.37 144.62 Z" />
<path fill="#695a0d" d=" M 253.92 154.37 C 255.71 145.64 272.18 140.05 270.22 153.12 C 263.42 160.71 261.06 171.34 253.54 178.43 C 244.08 180.42 242.09 191.42 237.27 198.27 C 234.32 201.28 237.14 207.58 230.91 206.13 L 230.04 206.06 C 225.90 203.49 229.03 197.26 229.79 193.80 C 230.86 189.79 236.53 188.31 235.68 183.84 C 240.18 180.27 243.86 174.17 245.04 168.17 C 245.48 167.84 246.34 167.20 246.78 166.87 C 251.90 164.58 251.64 158.68 253.92 154.37 Z" />
<path fill="#a9b08c" d=" M 16.86 152.25 C 17.90 150.12 21.02 147.20 22.75 150.28 C 24.79 155.60 26.98 160.78 30.43 165.34 C 30.48 169.02 30.86 175.77 35.97 175.02 C 35.75 167.63 31.67 160.77 33.10 153.25 C 35.37 150.02 35.90 154.81 36.53 156.60 C 39.02 163.33 38.38 171.23 42.78 177.11 L 43.14 177.78 C 43.40 182.35 44.42 186.82 46.01 191.10 C 42.53 191.54 40.98 188.01 38.87 185.95 C 40.36 194.91 44.16 203.18 47.56 211.46 C 51.14 219.38 47.03 215.16 45.01 213.99 C 36.90 197.14 29.28 179.97 24.08 161.97 C 23.35 159.27 19.19 152.68 19.77 159.19 C 18.82 156.87 17.83 154.56 16.86 152.25 Z" />
<path fill="#9dad89" d=" M 60.79 149.07 C 74.21 149.54 77.74 163.71 84.00 172.82 C 87.26 184.72 92.65 196.40 92.95 209.07 C 88.10 209.23 85.55 204.45 82.35 201.62 C 79.34 199.17 81.54 194.60 78.70 191.92 C 77.08 185.87 75.92 179.66 72.94 174.09 C 70.79 164.88 62.93 158.34 60.79 149.07 Z" />
<path fill="#846e2f" d=" M 270.22 153.12 C 271.44 151.69 272.37 150.04 273.39 148.47 C 278.70 156.12 268.91 162.38 267.21 169.36 C 262.46 176.02 257.66 183.07 251.30 188.28 C 243.45 190.85 238.31 198.88 237.67 206.92 C 237.39 208.25 237.43 209.61 237.78 210.92 C 235.52 211.21 233.28 211.55 231.05 211.94 C 230.77 210.01 230.57 208.06 230.91 206.13 C 237.14 207.58 234.32 201.28 237.27 198.27 C 242.09 191.42 244.08 180.42 253.54 178.43 C 261.06 171.34 263.42 160.71 270.22 153.12 Z" />
<path fill="#d1bfa2" d=" M 15.98 150.93 C 16.20 151.26 16.64 151.92 16.86 152.25 C 17.83 154.56 18.82 156.87 19.77 159.19 C 22.62 168.84 25.51 178.46 29.22 187.82 C 30.68 206.76 21.67 177.83 21.82 188.15 C 20.30 182.73 19.39 177.17 18.26 171.66 C 17.31 164.77 16.39 157.87 15.98 150.93 Z" />
<path fill="#a08656" d=" M 227.87 157.79 C 229.38 154.73 232.02 152.56 234.66 150.52 C 239.42 152.01 243.77 153.10 248.82 152.41 C 251.52 157.33 247.49 162.03 246.78 166.87 C 246.34 167.20 245.48 167.84 245.04 168.17 L 243.92 167.84 C 243.83 164.67 245.30 161.84 246.14 158.88 C 248.32 152.62 238.02 152.33 235.32 156.35 C 235.03 159.85 235.34 163.63 233.63 166.86 C 230.23 171.24 227.74 176.22 224.65 180.82 C 222.93 183.08 221.93 185.78 220.35 188.13 C 219.53 180.48 210.84 186.56 206.15 185.44 C 202.55 188.57 198.06 191.24 194.07 194.11 C 189.87 194.86 184.65 193.61 181.85 197.89 C 177.43 195.48 172.19 197.81 167.85 195.31 C 162.67 195.62 158.02 199.63 152.83 197.87 C 158.33 194.33 165.20 191.16 171.86 193.20 C 176.87 194.62 180.39 188.24 185.66 190.52 C 191.24 191.94 194.40 186.44 199.67 187.90 C 197.71 181.89 206.17 184.69 208.38 182.86 C 207.93 178.75 210.67 184.00 212.73 182.82 C 219.56 176.12 227.05 167.71 227.87 157.79 Z" />
<path fill="#848350" d=" M 290.85 153.38 C 292.66 152.67 294.54 152.16 296.44 151.71 C 299.47 154.72 302.96 157.33 305.43 160.87 C 304.24 162.93 302.85 164.87 301.77 166.99 C 301.00 164.54 299.17 163.06 296.86 162.10 C 295.65 158.74 294.13 155.26 290.85 153.38 Z" />
<path fill="#be9a67" d=" M 267.21 169.36 C 271.87 164.89 277.46 160.30 277.05 153.10 C 276.71 155.74 279.06 157.25 280.47 159.11 C 278.55 160.94 276.74 162.88 274.99 164.87 C 273.80 166.00 272.65 167.17 271.59 168.42 C 267.14 172.02 263.89 177.08 260.86 181.83 C 261.65 181.91 263.23 182.06 264.01 182.13 C 262.55 185.19 259.77 186.81 256.58 187.62 C 253.81 191.79 249.52 194.56 246.84 198.82 C 244.25 200.59 244.02 205.17 248.14 204.32 C 245.03 206.97 240.65 203.67 237.67 206.92 C 238.31 198.88 243.45 190.85 251.30 188.28 C 257.66 183.07 262.46 176.02 267.21 169.36 Z" />
<path fill="#5f652e" d=" M 164.42 162.00 C 171.73 157.32 181.27 158.75 188.54 153.97 C 191.14 160.07 198.10 151.92 198.95 158.13 C 199.84 161.35 203.70 161.63 206.29 162.78 C 207.73 165.09 207.39 168.18 208.04 170.80 C 199.15 170.67 193.12 178.38 185.01 180.39 C 181.74 181.97 180.35 178.28 179.03 175.97 C 177.41 173.15 181.66 167.60 174.47 169.34 C 171.00 167.07 167.36 164.94 164.42 162.00 Z" />
<path fill="#b69f83" d=" M 235.32 156.35 C 238.02 152.33 248.32 152.62 246.14 158.88 C 242.21 161.79 240.79 167.08 236.74 169.76 C 234.64 170.99 234.40 168.13 233.63 166.86 C 235.34 163.63 235.03 159.85 235.32 156.35 Z" />
<path fill="#845b22" d=" M 285.53 155.85 C 287.21 154.84 289.00 154.04 290.85 153.38 C 294.13 155.26 295.65 158.74 296.86 162.10 C 299.17 163.06 301.00 164.54 301.77 166.99 C 304.28 171.71 310.91 169.20 314.87 172.12 C 321.14 175.94 306.29 175.67 304.11 176.18 C 302.11 173.88 300.14 171.25 296.79 171.10 C 294.89 164.48 288.66 161.38 285.53 155.85 Z" />
<path fill="#9a8d62" d=" M 19.77 159.19 C 19.19 152.68 23.35 159.27 24.08 161.97 C 29.28 179.97 36.90 197.14 45.01 213.99 L 43.94 214.15 C 40.80 211.34 40.98 205.01 36.14 209.02 C 35.22 201.48 34.17 193.86 29.22 187.82 C 25.51 178.46 22.62 168.84 19.77 159.19 Z" />
<path fill="#a76333" d=" M 280.47 159.11 C 282.16 158.04 283.77 156.83 285.53 155.85 C 288.66 161.38 294.89 164.48 296.79 171.10 C 297.13 173.00 297.50 174.90 297.67 176.83 C 292.78 176.69 289.17 180.57 284.53 181.48 C 276.09 185.12 282.08 180.74 281.88 178.18 C 279.64 174.42 274.11 182.33 273.04 176.95 C 275.00 173.16 276.46 169.30 274.99 164.87 C 276.74 162.88 278.55 160.94 280.47 159.11 Z" />
<path fill="#897f3e" d=" M 219.69 172.76 C 222.27 167.69 224.60 162.47 227.87 157.79 C 227.05 167.71 219.56 176.12 212.73 182.82 C 210.67 184.00 207.93 178.75 208.38 182.86 C 206.17 184.69 197.71 181.89 199.67 187.90 C 194.40 186.44 191.24 191.94 185.66 190.52 C 180.39 188.24 176.87 194.62 171.86 193.20 C 165.20 191.16 158.33 194.33 152.83 197.87 L 152.18 198.34 C 145.34 197.39 138.35 196.53 131.58 198.63 C 131.72 198.25 131.99 197.51 132.12 197.14 C 139.45 194.74 147.19 195.93 153.78 191.83 C 153.61 190.21 153.24 188.63 153.05 187.01 C 155.57 187.03 158.92 189.38 160.42 186.31 C 169.86 184.53 179.47 186.56 188.96 184.07 C 198.30 179.81 212.08 181.77 219.69 172.76 Z" />
<path fill="#999967" d=" M 236.74 169.76 C 240.79 167.08 242.21 161.79 246.14 158.88 C 245.30 161.84 243.83 164.67 243.92 167.84 C 238.54 172.26 237.89 179.73 232.94 184.03 C 229.66 183.76 224.00 185.79 224.65 180.82 C 227.74 176.22 230.23 171.24 233.63 166.86 C 234.40 168.13 234.64 170.99 236.74 169.76 Z" />
<path fill="#ae9f73" d=" M 305.43 160.87 C 305.67 161.13 306.15 161.66 306.38 161.92 C 306.96 163.66 305.89 165.11 305.22 166.63 C 310.42 169.32 316.51 171.32 322.31 170.33 C 321.98 164.60 327.31 166.65 331.13 165.91 C 333.21 166.96 335.31 167.99 337.43 168.97 L 336.83 169.63 C 332.00 169.35 331.17 172.65 335.69 174.27 C 339.32 177.23 341.97 181.97 347.13 182.34 C 346.81 182.73 346.16 183.50 345.84 183.89 C 344.88 184.73 344.35 185.79 344.72 187.06 C 343.50 186.50 342.37 185.79 341.26 185.06 C 334.01 177.98 325.69 170.62 314.87 172.12 C 310.91 169.20 304.28 171.71 301.77 166.99 C 302.85 164.87 304.24 162.93 305.43 160.87 Z" />
<path fill="#bbbb9a" d=" M 306.38 161.92 C 314.07 166.13 323.54 161.78 331.13 165.91 C 327.31 166.65 321.98 164.60 322.31 170.33 C 316.51 171.32 310.42 169.32 305.22 166.63 C 305.89 165.11 306.96 163.66 306.38 161.92 Z" />
<path fill="#b37f43" d=" M 271.59 168.42 C 272.65 167.17 273.80 166.00 274.99 164.87 C 276.46 169.30 275.00 173.16 273.04 176.95 C 274.11 182.33 279.64 174.42 281.88 178.18 C 282.08 180.74 276.09 185.12 284.53 181.48 C 289.17 180.57 292.78 176.69 297.67 176.83 L 297.75 177.70 C 293.29 181.14 295.49 187.18 297.17 191.52 C 288.34 191.76 279.30 190.94 270.77 193.76 C 267.80 194.58 264.93 195.73 262.22 197.18 C 255.64 195.08 253.12 202.00 248.14 204.32 C 244.02 205.17 244.25 200.59 246.84 198.82 C 249.52 194.56 253.81 191.79 256.58 187.62 C 259.77 186.81 262.55 185.19 264.01 182.13 C 265.64 176.77 275.47 174.21 271.59 168.42 Z" />
<path fill="#c5b095" d=" M 337.43 168.97 C 350.40 170.59 362.60 163.87 375.56 165.24 C 376.91 167.02 378.60 169.06 377.64 171.44 C 378.73 179.51 368.30 177.86 363.78 177.79 C 364.18 177.57 364.98 177.13 365.38 176.92 C 370.04 179.38 380.43 172.72 373.26 168.70 C 361.23 165.24 348.97 173.50 336.83 169.63 L 337.43 168.97 Z" />
<path fill="#778c53" d=" M 42.01 166.91 C 47.48 169.58 49.00 176.52 53.90 180.06 C 61.75 185.59 65.30 195.63 74.04 200.03 C 74.25 200.31 74.67 200.87 74.88 201.16 C 74.85 202.56 74.79 203.96 74.71 205.37 C 67.37 200.09 62.40 189.69 52.98 187.92 C 52.88 194.41 58.60 199.31 59.22 205.79 C 60.80 208.29 64.65 209.48 64.15 213.04 C 59.31 211.20 56.38 206.63 52.06 203.98 C 49.05 213.05 61.69 221.39 63.40 229.39 C 60.41 229.04 56.83 224.84 52.72 226.16 C 51.50 224.89 50.38 223.52 49.41 222.05 C 51.60 220.44 53.73 223.20 56.07 223.11 C 54.05 214.00 45.92 206.88 45.85 196.98 C 48.11 198.57 50.28 200.44 52.99 201.23 C 47.80 194.16 48.24 184.80 43.14 177.78 L 42.78 177.11 C 42.53 173.70 42.12 170.32 42.01 166.91 Z" />
<path fill="#7c7b37" d=" M 232.94 184.03 C 237.89 179.73 238.54 172.26 243.92 167.84 L 245.04 168.17 C 243.86 174.17 240.18 180.27 235.68 183.84 C 236.53 188.31 230.86 189.79 229.79 193.80 C 229.03 197.26 225.90 203.49 230.04 206.06 C 228.72 206.21 227.42 206.44 226.10 206.60 C 223.30 198.35 229.34 190.84 232.94 184.03 Z" />
<path fill="#a87d41" d=" M 336.83 169.63 C 348.97 173.50 361.23 165.24 373.26 168.70 C 380.43 172.72 370.04 179.38 365.38 176.92 C 357.26 170.01 345.15 179.88 335.69 174.27 C 331.17 172.65 332.00 169.35 336.83 169.63 Z" />
<path fill="#dec8b0" d=" M 260.86 181.83 C 263.89 177.08 267.14 172.02 271.59 168.42 C 275.47 174.21 265.64 176.77 264.01 182.13 C 263.23 182.06 261.65 181.91 260.86 181.83 Z" />
<path fill="#c39771" d=" M 296.79 171.10 C 300.14 171.25 302.11 173.88 304.11 176.18 C 303.69 181.88 306.29 186.51 310.76 190.31 C 311.86 192.09 312.98 193.93 313.17 196.08 C 306.33 191.91 303.54 183.23 297.75 177.70 L 297.67 176.83 C 297.50 174.90 297.13 173.00 296.79 171.10 Z" />
<path fill="#f9f7f6" d=" M 18.26 171.66 C 19.39 177.17 20.30 182.73 21.82 188.15 C 22.23 189.66 22.73 191.14 23.18 192.64 C 16.92 208.89 27.71 223.40 32.94 238.03 C 35.93 244.12 37.87 250.89 42.20 256.22 C 40.20 256.30 39.40 258.30 40.08 260.01 L 39.74 260.75 L 39.06 261.07 C 34.31 262.62 32.28 267.86 27.83 269.93 C 23.62 272.15 28.87 277.40 31.79 278.26 C 34.58 278.89 37.68 278.51 40.35 279.63 C 42.53 284.22 37.46 287.79 36.84 291.98 C 44.15 294.36 48.86 284.03 56.04 287.92 C 59.05 289.07 59.31 292.29 59.19 295.09 C 57.16 298.04 54.81 301.45 56.57 305.23 C 57.31 307.42 58.58 309.54 60.86 310.39 C 63.08 311.93 66.50 312.58 68.08 310.10 C 69.40 309.84 70.71 309.56 72.02 309.26 C 80.09 308.97 77.43 294.83 86.61 296.43 C 94.38 293.26 101.82 290.69 110.58 291.64 C 114.29 285.97 122.58 287.94 127.63 290.43 C 137.82 298.04 153.28 287.56 163.16 295.96 C 165.34 296.68 166.66 294.38 168.32 293.44 C 173.69 296.12 180.13 296.04 184.94 299.95 C 192.08 300.20 193.54 311.47 201.24 309.71 C 210.48 310.65 217.85 317.57 227.17 318.75 C 231.35 320.08 236.00 319.00 240.10 320.85 C 250.78 326.44 263.48 324.66 274.27 329.80 C 279.79 333.85 285.57 337.78 289.81 343.26 C 295.46 349.40 304.84 347.32 310.76 342.79 C 313.42 339.22 310.61 334.83 308.15 332.01 C 303.12 328.64 296.47 327.57 293.01 322.12 C 292.41 320.72 291.74 319.36 291.17 317.96 C 299.49 314.99 308.70 315.32 317.29 313.30 C 321.82 313.10 326.40 312.93 330.96 313.15 C 336.22 314.83 342.16 316.12 347.25 313.29 C 349.05 313.22 349.47 311.34 348.93 309.92 C 353.39 301.41 343.11 296.39 335.84 299.55 C 330.17 295.09 323.22 298.31 317.27 300.35 C 310.56 301.52 298.07 297.10 302.39 288.39 C 307.85 286.41 309.72 281.87 311.90 277.22 C 316.19 281.21 317.80 277.63 316.10 273.22 C 322.32 270.20 329.25 266.40 327.16 258.10 C 333.39 252.69 342.90 246.12 340.07 236.01 C 339.81 231.05 332.54 232.26 330.79 228.03 C 335.73 224.71 334.53 218.17 337.76 213.77 C 350.04 208.00 363.12 220.11 375.23 214.21 C 378.61 212.63 378.35 209.03 376.10 206.57 C 379.00 201.21 371.22 200.25 367.78 198.29 C 372.36 195.60 376.61 199.01 379.45 202.46 C 378.78 205.05 381.27 209.85 383.03 206.02 C 384.66 209.18 383.13 215.58 388.00 216.02 C 398.00 217.64 385.35 237.13 400.00 232.12 L 400.00 349.00 L 184.24 349.00 C 184.98 344.41 180.88 342.69 176.60 343.37 C 178.31 328.39 158.70 340.36 152.38 334.71 C 154.54 323.54 141.84 329.95 136.74 327.30 C 135.94 308.10 102.62 332.00 103.26 312.72 C 93.03 308.83 82.75 317.89 71.99 315.09 C 64.28 316.21 49.94 312.73 52.91 301.95 C 51.66 302.91 50.50 304.00 49.16 304.85 C 44.65 300.17 38.77 307.72 33.37 304.83 C 29.90 301.63 27.47 297.01 22.85 295.30 C 21.24 294.55 18.15 294.55 18.94 292.00 C 18.46 287.44 27.21 288.68 24.43 283.64 C 22.21 279.94 28.31 281.05 27.93 278.08 C 24.28 274.65 24.96 269.53 27.88 265.85 C 27.30 258.34 17.61 256.37 18.04 248.78 C 16.93 242.27 14.35 235.71 15.90 229.09 C 15.16 223.21 5.82 225.05 7.48 217.47 C -0.60 212.78 4.00 202.04 3.18 194.36 C 9.39 191.18 7.44 180.95 16.89 182.67 C 15.83 178.87 16.12 175.05 18.26 171.66 Z" />
<path fill="#a67834" d=" M 314.87 172.12 C 325.69 170.62 334.01 177.98 341.26 185.06 C 339.96 189.21 334.05 185.11 330.82 185.11 C 325.34 180.30 318.52 179.74 311.64 181.15 C 305.27 182.01 314.28 185.65 314.93 188.04 C 316.08 190.87 312.38 189.82 310.76 190.31 C 306.29 186.51 303.69 181.88 304.11 176.18 C 306.29 175.67 321.14 175.94 314.87 172.12 Z" />
<path fill="#8b9967" d=" M 84.00 172.82 C 89.81 181.13 92.73 191.72 95.80 201.13 C 95.07 206.04 97.64 212.20 90.83 212.99 C 86.68 211.54 83.28 208.80 79.73 206.37 C 77.27 204.74 78.33 208.69 77.74 210.02 C 75.21 210.29 75.55 206.99 74.71 205.37 C 74.79 203.96 74.85 202.56 74.88 201.16 C 76.62 204.21 77.41 204.20 77.06 200.49 C 79.92 198.39 78.29 194.85 78.70 191.92 C 81.54 194.60 79.34 199.17 82.35 201.62 C 85.55 204.45 88.10 209.23 92.95 209.07 C 92.65 196.40 87.26 184.72 84.00 172.82 Z" />
<path fill="#c69f5c" d=" M 335.69 174.27 C 345.15 179.88 357.26 170.01 365.38 176.92 C 364.98 177.13 364.18 177.57 363.78 177.79 C 362.60 178.25 361.43 178.71 360.25 179.16 C 355.63 178.95 351.48 181.20 347.13 182.34 C 341.97 181.97 339.32 177.23 335.69 174.27 Z" />
<path fill="#513c1c" d=" M 98.23 175.10 C 108.67 174.22 116.89 183.25 121.33 191.73 C 109.91 196.23 114.31 209.42 123.02 213.95 C 129.14 216.50 135.19 220.22 142.01 220.04 C 143.41 222.22 149.65 221.11 147.31 224.33 C 134.94 229.97 120.67 228.04 107.68 231.68 C 105.94 232.08 103.43 232.48 103.69 229.87 C 103.79 229.16 104.00 227.73 104.11 227.02 C 104.57 225.66 105.50 222.96 105.96 221.60 C 107.22 223.86 107.50 227.67 112.05 225.01 C 119.13 224.66 126.01 222.62 133.03 221.72 C 130.61 216.16 121.45 217.08 117.25 212.75 C 112.90 211.74 110.40 205.03 105.91 205.91 C 102.14 200.58 102.70 193.62 100.33 187.72 C 99.82 183.67 95.71 178.60 98.23 175.10 Z" />
<path fill="#95a074" d=" M 43.14 177.78 C 48.24 184.80 47.80 194.16 52.99 201.23 C 50.28 200.44 48.11 198.57 45.85 196.98 C 45.92 206.88 54.05 214.00 56.07 223.11 C 53.73 223.20 51.60 220.44 49.41 222.05 C 47.55 219.44 45.90 216.69 43.94 214.15 L 45.01 213.99 C 47.03 215.16 51.14 219.38 47.56 211.46 C 44.16 203.18 40.36 194.91 38.87 185.95 C 40.98 188.01 42.53 191.54 46.01 191.10 C 44.42 186.82 43.40 182.35 43.14 177.78 Z" />
<path fill="#bb9252" d=" M 297.17 191.52 C 295.49 187.18 293.29 181.14 297.75 177.70 C 303.54 183.23 306.33 191.91 313.17 196.08 C 312.98 193.93 311.86 192.09 310.76 190.31 C 312.38 189.82 316.08 190.87 314.93 188.04 C 314.28 185.65 305.27 182.01 311.64 181.15 C 312.54 183.25 314.75 183.87 316.83 184.13 C 322.17 186.10 320.03 192.97 318.66 197.14 C 317.63 198.52 318.20 200.00 319.51 200.93 C 321.06 202.57 322.76 204.09 324.03 205.97 C 317.87 209.47 317.76 202.85 312.98 201.04 C 309.38 201.58 308.38 204.77 308.86 208.00 C 299.83 198.85 287.71 191.39 274.20 194.05 C 273.34 193.98 271.62 193.83 270.77 193.76 C 279.30 190.94 288.34 191.76 297.17 191.52 Z" />
<path fill="#dfccb5" d=" M 347.13 182.34 C 351.48 181.20 355.63 178.95 360.25 179.16 C 356.46 181.90 347.91 180.19 347.95 185.84 C 347.23 185.20 346.52 184.55 345.84 183.89 C 346.16 183.50 346.81 182.73 347.13 182.34 Z" />
<path fill="#d0b697" d=" M 311.64 181.15 C 318.52 179.74 325.34 180.30 330.82 185.11 C 331.90 186.00 332.99 186.87 334.14 187.68 C 331.73 187.70 327.63 188.59 328.16 191.75 C 330.21 194.45 333.59 196.24 334.22 199.87 C 329.34 200.36 324.17 199.01 319.51 200.93 C 318.20 200.00 317.63 198.52 318.66 197.14 C 321.64 197.32 325.37 199.17 328.06 196.93 C 325.65 194.33 322.78 191.63 324.72 187.82 C 326.50 182.82 320.09 184.11 316.83 184.13 C 314.75 183.87 312.54 183.25 311.64 181.15 Z" />
<path fill="#8b8e4f" d=" M 220.35 188.13 C 221.93 185.78 222.93 183.08 224.65 180.82 C 224.00 185.79 229.66 183.76 232.94 184.03 C 229.34 190.84 223.30 198.35 226.10 206.60 C 227.42 206.44 228.72 206.21 230.04 206.06 L 230.91 206.13 C 230.57 208.06 230.77 210.01 231.05 211.94 C 229.48 219.90 224.95 204.94 219.76 209.63 C 218.01 207.95 222.16 194.07 218.04 202.17 C 217.89 198.09 218.01 194.01 219.08 190.06 C 219.40 189.58 220.03 188.61 220.35 188.13 Z" />
<path fill="#747229" d=" M 148.25 183.06 C 152.64 183.60 157.03 184.04 161.40 182.71 C 162.18 184.04 160.98 185.17 160.42 186.31 C 158.92 189.38 155.57 187.03 153.05 187.01 C 153.24 188.63 153.61 190.21 153.78 191.83 C 147.19 195.93 139.45 194.74 132.12 197.14 C 130.95 197.18 129.78 197.22 128.61 197.19 C 128.39 195.93 128.18 194.68 128.00 193.43 C 131.75 189.61 136.69 187.92 142.02 188.04 C 145.83 189.11 146.96 185.88 148.25 183.06 Z" />
<path fill="#b19e72" d=" M 206.15 185.44 C 210.84 186.56 219.53 180.48 220.35 188.13 C 220.03 188.61 219.40 189.58 219.08 190.06 C 210.61 184.90 202.03 194.64 194.56 197.46 C 182.47 200.02 167.71 207.42 156.18 200.22 C 154.39 202.49 152.52 204.71 150.12 206.39 C 155.01 214.93 164.97 215.38 173.68 215.72 C 186.67 215.01 198.93 210.13 212.04 209.92 C 211.33 210.53 210.61 211.13 209.89 211.73 C 206.77 213.14 203.58 214.44 200.27 215.37 C 183.00 215.00 164.18 223.27 148.01 213.97 C 143.51 212.98 140.88 209.22 139.14 205.30 C 143.26 203.15 151.50 204.04 152.18 198.34 L 152.83 197.87 C 158.02 199.63 162.67 195.62 167.85 195.31 C 172.19 197.81 177.43 195.48 181.85 197.89 C 184.65 193.61 189.87 194.86 194.07 194.11 C 198.06 191.24 202.55 188.57 206.15 185.44 Z" />
<path fill="#bf9d72" d=" M 316.83 184.13 C 320.09 184.11 326.50 182.82 324.72 187.82 C 322.78 191.63 325.65 194.33 328.06 196.93 C 325.37 199.17 321.64 197.32 318.66 197.14 C 320.03 192.97 322.17 186.10 316.83 184.13 Z" />
<path fill="#cfaf81" d=" M 345.84 183.89 C 346.52 184.55 347.23 185.20 347.95 185.84 C 354.34 190.58 362.60 192.09 367.78 198.29 C 371.22 200.25 379.00 201.21 376.10 206.57 C 374.86 214.48 364.39 214.97 358.83 211.18 C 358.13 209.38 357.67 207.46 357.82 205.52 C 359.85 211.44 368.58 215.75 371.98 208.96 C 377.02 204.95 370.55 204.86 368.88 202.13 C 365.73 198.09 360.31 200.52 356.89 202.92 L 356.14 203.07 C 355.13 201.34 354.12 199.61 352.99 197.95 C 356.15 200.87 359.69 198.60 361.08 195.12 C 355.76 192.16 350.22 189.64 344.72 187.06 C 344.35 185.79 344.88 184.73 345.84 183.89 Z" />
<path fill="#c1a98b" d=" M 21.82 188.15 C 21.67 177.83 30.68 206.76 29.22 187.82 C 34.17 193.86 35.22 201.48 36.14 209.02 C 40.98 205.01 40.80 211.34 43.94 214.15 C 45.90 216.69 47.55 219.44 49.41 222.05 C 50.38 223.52 51.50 224.89 52.72 226.16 C 53.55 228.18 54.36 230.22 55.32 232.19 C 46.88 234.62 48.10 219.42 39.97 218.97 C 35.29 217.89 39.34 224.81 39.95 227.10 C 36.76 223.71 32.98 220.09 34.89 215.18 C 34.13 215.13 32.61 215.02 31.85 214.97 C 31.10 211.73 29.98 208.58 28.22 205.75 C 26.21 201.51 24.90 196.99 23.18 192.64 C 22.73 191.14 22.23 189.66 21.82 188.15 Z" />
<path fill="#c39548" d=" M 330.82 185.11 C 334.05 185.11 339.96 189.21 341.26 185.06 C 342.37 185.79 343.50 186.50 344.72 187.06 C 350.22 189.64 355.76 192.16 361.08 195.12 C 359.69 198.60 356.15 200.87 352.99 197.95 C 347.14 195.32 341.63 192.07 336.17 188.72 C 335.66 188.46 334.64 187.94 334.14 187.68 C 332.99 186.87 331.90 186.00 330.82 185.11 Z" />
<path fill="#697733" d=" M 52.98 187.92 C 62.40 189.69 67.37 200.09 74.71 205.37 C 75.55 206.99 75.21 210.29 77.74 210.02 C 78.33 208.69 77.27 204.74 79.73 206.37 C 83.28 208.80 86.68 211.54 90.83 212.99 C 88.18 215.43 86.15 218.58 87.52 222.26 C 88.96 226.31 84.44 227.39 81.70 228.71 C 80.64 231.90 81.80 237.20 78.06 239.09 C 74.85 241.29 71.34 238.46 68.09 237.81 C 65.43 234.57 56.97 227.65 57.73 236.20 C 57.22 235.40 56.72 234.60 56.21 233.80 C 55.99 233.40 55.54 232.59 55.32 232.19 C 54.36 230.22 53.55 228.18 52.72 226.16 C 56.83 224.84 60.41 229.04 63.40 229.39 C 61.69 221.39 49.05 213.05 52.06 203.98 C 56.38 206.63 59.31 211.20 64.15 213.04 C 64.65 209.48 60.80 208.29 59.22 205.79 C 58.60 199.31 52.88 194.41 52.98 187.92 Z" />
<path fill="#655d15" d=" M 100.33 187.72 C 102.70 193.62 102.14 200.58 105.91 205.91 C 105.98 211.13 106.05 216.37 105.96 221.60 C 105.50 222.96 104.57 225.66 104.11 227.02 C 96.01 232.68 85.51 236.56 82.81 247.06 C 78.69 242.54 72.12 242.27 68.09 237.81 C 71.34 238.46 74.85 241.29 78.06 239.09 C 81.80 237.20 80.64 231.90 81.70 228.71 C 84.44 227.39 88.96 226.31 87.52 222.26 C 86.15 218.58 88.18 215.43 90.83 212.99 C 94.95 214.82 99.24 213.02 98.71 208.06 C 99.16 201.28 98.73 194.37 100.33 187.72 Z" />
<path fill="#c3b087" d=" M 194.56 197.46 C 202.03 194.64 210.61 184.90 219.08 190.06 C 218.01 194.01 217.89 198.09 218.04 202.17 C 216.80 205.51 216.17 209.02 215.08 212.40 C 214.40 210.91 214.09 208.41 212.04 209.92 C 198.93 210.13 186.67 215.01 173.68 215.72 C 164.97 215.38 155.01 214.93 150.12 206.39 C 152.52 204.71 154.39 202.49 156.18 200.22 C 167.71 207.42 182.47 200.02 194.56 197.46 Z" />
<path fill="#e3d1bf" d=" M 328.16 191.75 C 327.63 188.59 331.73 187.70 334.14 187.68 C 334.64 187.94 335.66 188.46 336.17 188.72 C 329.69 188.15 334.28 196.12 338.01 197.01 C 343.95 198.80 349.87 203.28 356.14 203.07 L 356.89 202.92 C 357.21 203.78 357.52 204.65 357.82 205.52 C 357.67 207.46 358.13 209.38 358.83 211.18 C 350.74 205.76 340.89 204.06 331.32 204.32 C 327.59 204.70 325.68 208.01 323.94 210.89 C 323.97 210.14 324.03 208.65 324.06 207.90 C 324.05 207.42 324.04 206.45 324.03 205.97 C 322.76 204.09 321.06 202.57 319.51 200.93 C 324.17 199.01 329.34 200.36 334.22 199.87 C 333.59 196.24 330.21 194.45 328.16 191.75 Z" />
<path fill="#f0e6d9" d=" M 338.01 197.01 C 334.28 196.12 329.69 188.15 336.17 188.72 C 341.63 192.07 347.14 195.32 352.99 197.95 C 354.12 199.61 355.13 201.34 356.14 203.07 C 349.87 203.28 343.95 198.80 338.01 197.01 Z" />
<path fill="#695233" d=" M 123.02 213.95 C 114.31 209.42 109.91 196.23 121.33 191.73 C 123.54 192.34 125.76 192.93 128.00 193.43 C 128.18 194.68 128.39 195.93 128.61 197.19 C 125.90 197.91 121.64 199.09 122.28 202.71 C 122.98 213.09 134.46 215.87 142.01 220.04 C 135.19 220.22 129.14 216.50 123.02 213.95 Z" />
<path fill="#eee7e4" d=" M 23.18 192.64 C 24.90 196.99 26.21 201.51 28.22 205.75 C 29.04 221.96 37.08 237.07 44.60 251.29 C 43.91 252.98 43.07 254.61 42.20 256.22 C 37.87 250.89 35.93 244.12 32.94 238.03 C 27.71 223.40 16.92 208.89 23.18 192.64 Z" />
<path fill="#c5b39a" d=" M 262.22 197.18 C 264.93 195.73 267.80 194.58 270.77 193.76 C 271.62 193.83 273.34 193.98 274.20 194.05 C 259.87 196.33 259.99 212.00 257.97 223.04 C 256.37 231.58 251.70 239.37 251.63 248.24 C 250.10 243.15 248.81 237.99 246.96 233.01 C 247.41 231.65 247.54 229.70 245.89 229.12 C 243.90 216.60 250.42 202.74 262.22 197.18 Z" />
<path fill="#d3c1ae" d=" M 274.20 194.05 C 287.71 191.39 299.83 198.85 308.86 208.00 C 308.66 210.94 309.24 213.74 312.13 215.09 C 311.38 215.06 309.88 214.99 309.13 214.96 C 308.81 214.52 308.18 213.63 307.87 213.19 C 307.88 205.49 299.50 203.26 293.93 200.05 C 287.96 195.45 280.06 196.75 273.72 199.73 C 269.14 214.02 270.14 229.50 268.24 244.16 C 266.84 253.50 249.34 248.72 254.66 260.26 C 253.58 256.27 252.60 252.25 251.63 248.24 C 251.70 239.37 256.37 231.58 257.97 223.04 C 259.99 212.00 259.87 196.33 274.20 194.05 Z" />
<path fill="#7f6a48" d=" M 122.28 202.71 C 121.64 199.09 125.90 197.91 128.61 197.19 C 129.78 197.22 130.95 197.18 132.12 197.14 C 131.99 197.51 131.72 198.25 131.58 198.63 C 128.10 202.73 133.56 207.77 135.33 211.66 C 143.65 219.55 156.16 218.59 166.53 221.07 C 158.40 222.93 150.15 220.60 142.01 220.04 C 134.46 215.87 122.98 213.09 122.28 202.71 Z" />
<path fill="#99865e" d=" M 131.58 198.63 C 138.35 196.53 145.34 197.39 152.18 198.34 C 151.50 204.04 143.26 203.15 139.14 205.30 C 140.88 209.22 143.51 212.98 148.01 213.97 C 164.18 223.27 183.00 215.00 200.27 215.37 C 194.54 217.23 188.53 218.07 182.72 219.67 C 177.37 220.55 171.95 220.86 166.53 221.07 C 156.16 218.59 143.65 219.55 135.33 211.66 C 133.56 207.77 128.10 202.73 131.58 198.63 Z" />
<path fill="#baa283" d=" M 248.14 204.32 C 253.12 202.00 255.64 195.08 262.22 197.18 C 250.42 202.74 243.90 216.60 245.89 229.12 C 242.65 223.29 241.73 216.35 237.78 210.92 C 237.43 209.61 237.39 208.25 237.67 206.92 C 240.65 203.67 245.03 206.97 248.14 204.32 Z" />
<path fill="#ded0c4" d=" M 273.72 199.73 C 280.06 196.75 287.96 195.45 293.93 200.05 C 299.50 203.26 307.88 205.49 307.87 213.19 C 303.71 205.67 293.39 200.34 285.27 204.29 C 281.55 217.91 278.68 231.81 281.99 245.85 C 277.35 249.58 278.31 256.68 272.46 259.45 C 267.25 263.33 258.77 264.71 257.54 272.19 C 256.29 268.29 255.61 264.23 254.66 260.26 C 249.34 248.72 266.84 253.50 268.24 244.16 C 270.14 229.50 269.14 214.02 273.72 199.73 Z" />
<path fill="#706d2e" d=" M 218.04 202.17 C 222.16 194.07 218.01 207.95 219.76 209.63 C 224.95 204.94 229.48 219.90 231.05 211.94 C 233.28 211.55 235.52 211.21 237.78 210.92 C 241.73 216.35 242.65 223.29 245.89 229.12 C 245.54 230.51 245.65 232.14 246.96 233.01 C 248.81 237.99 250.10 243.15 251.63 248.24 C 252.60 252.25 253.58 256.27 254.66 260.26 C 255.61 264.23 256.29 268.29 257.54 272.19 C 258.59 275.18 260.64 277.75 261.18 280.93 C 263.35 285.44 258.94 282.95 256.27 283.00 C 256.52 286.56 255.11 288.07 252.49 285.12 C 256.66 281.57 255.65 277.74 250.28 276.55 C 254.48 266.24 248.93 255.20 246.44 245.13 C 249.16 242.17 247.94 237.92 243.71 240.61 C 242.21 241.58 246.26 243.94 243.52 244.54 C 239.30 249.17 235.43 238.31 231.19 243.18 C 228.65 250.48 232.78 257.98 232.39 265.48 C 237.16 266.40 237.56 270.44 235.68 274.29 C 234.47 273.17 233.33 271.99 232.23 270.78 C 230.93 267.35 228.47 264.59 226.22 261.77 C 225.75 260.60 225.26 259.44 224.82 258.26 C 225.46 254.33 222.79 251.03 222.43 247.30 C 223.39 242.26 220.58 235.11 215.25 233.61 C 214.89 232.37 214.52 231.13 214.16 229.89 C 213.86 227.89 213.50 225.90 212.98 223.94 C 211.01 219.90 213.74 216.13 215.08 212.40 C 216.17 209.02 216.80 205.51 218.04 202.17 Z" />
<path fill="#73793a" d=" M 96.00 200.03 C 97.47 202.49 98.16 205.26 98.71 208.06 C 99.24 213.02 94.95 214.82 90.83 212.99 C 97.64 212.20 95.07 206.04 95.80 201.13 L 96.00 200.03 Z" />
<path fill="#ae7a39" d=" M 356.89 202.92 C 360.31 200.52 365.73 198.09 368.88 202.13 C 370.55 204.86 377.02 204.95 371.98 208.96 C 368.58 215.75 359.85 211.44 357.82 205.52 C 357.52 204.65 357.21 203.78 356.89 202.92 Z" />
<path fill="#9e6e2c" d=" M 308.86 208.00 C 308.38 204.77 309.38 201.58 312.98 201.04 C 317.76 202.85 317.87 209.47 324.03 205.97 C 324.04 206.45 324.05 207.42 324.06 207.90 C 318.89 211.16 313.74 212.80 308.86 208.00 Z" />
<path fill="#e8ded5" d=" M 285.27 204.29 C 293.39 200.34 303.71 205.67 307.87 213.19 C 308.18 213.63 308.81 214.52 309.13 214.96 C 303.17 212.38 296.41 209.94 292.74 217.69 C 291.67 225.07 297.17 231.67 299.56 238.46 C 300.42 245.15 300.69 253.33 295.06 258.06 C 294.39 262.61 291.92 265.84 288.02 268.29 C 289.33 270.73 292.79 269.82 295.16 270.74 C 292.31 270.87 289.43 270.65 286.72 271.57 C 281.81 276.63 277.02 282.39 269.77 284.41 C 266.83 283.44 263.54 283.11 261.18 280.93 C 260.64 277.75 258.59 275.18 257.54 272.19 C 258.77 264.71 267.25 263.33 272.46 259.45 C 278.31 256.68 277.35 249.58 281.99 245.85 C 278.68 231.81 281.55 217.91 285.27 204.29 Z" />
<path fill="#f2ebe6" d=" M 331.32 204.32 C 340.89 204.06 350.74 205.76 358.83 211.18 C 364.39 214.97 374.86 214.48 376.10 206.57 C 378.35 209.03 378.61 212.63 375.23 214.21 C 363.12 220.11 350.04 208.00 337.76 213.77 C 334.53 218.17 335.73 224.71 330.79 228.03 C 332.54 232.26 339.81 231.05 340.07 236.01 C 342.90 246.12 333.39 252.69 327.16 258.10 C 329.25 266.40 322.32 270.20 316.10 273.22 C 317.80 277.63 316.19 281.21 311.90 277.22 C 309.72 281.87 307.85 286.41 302.39 288.39 C 298.07 297.10 310.56 301.52 317.27 300.35 C 316.94 300.53 316.27 300.90 315.93 301.08 C 308.70 302.12 302.69 297.62 296.04 295.81 C 292.16 293.94 288.27 292.07 284.83 289.46 C 287.52 287.63 290.21 285.79 293.02 284.15 C 299.05 283.02 300.61 273.03 295.16 270.74 C 292.79 269.82 289.33 270.73 288.02 268.29 C 291.92 265.84 294.39 262.61 295.06 258.06 C 300.69 253.33 300.42 245.15 299.56 238.46 C 297.17 231.67 291.67 225.07 292.74 217.69 C 296.41 209.94 303.17 212.38 309.13 214.96 C 309.88 214.99 311.38 215.06 312.13 215.09 C 316.77 216.31 320.71 213.77 323.94 210.89 C 325.68 208.01 327.59 204.70 331.32 204.32 Z" />
<path fill="#422515" d=" M 105.91 205.91 C 110.40 205.03 112.90 211.74 117.25 212.75 C 121.45 217.08 130.61 216.16 133.03 221.72 C 126.01 222.62 119.13 224.66 112.05 225.01 C 107.50 227.67 107.22 223.86 105.96 221.60 C 106.05 216.37 105.98 211.13 105.91 205.91 Z" />
<path fill="#ded3ce" d=" M 28.22 205.75 C 29.98 208.58 31.10 211.73 31.85 214.97 C 33.52 227.54 43.70 237.49 45.13 249.99 C 45.00 250.31 44.73 250.97 44.60 251.29 C 37.08 237.07 29.04 221.96 28.22 205.75 Z" />
<path fill="#b9925c" d=" M 308.86 208.00 C 313.74 212.80 318.89 211.16 324.06 207.90 C 324.03 208.65 323.97 210.14 323.94 210.89 C 320.71 213.77 316.77 216.31 312.13 215.09 C 309.24 213.74 308.66 210.94 308.86 208.00 Z" />
<path fill="#897257" d=" M 212.04 209.92 C 214.09 208.41 214.40 210.91 215.08 212.40 C 213.74 216.13 211.01 219.90 212.98 223.94 C 211.36 223.14 209.34 222.39 207.80 223.80 C 194.38 232.32 179.67 241.24 163.00 239.08 C 145.80 240.14 127.82 234.71 111.08 240.08 C 105.75 242.16 102.46 247.20 99.91 252.06 C 99.35 251.80 98.22 251.29 97.65 251.03 C 101.20 239.41 114.68 233.73 126.03 235.73 C 142.21 235.27 159.56 239.10 174.70 231.73 C 187.41 226.08 204.25 225.24 211.94 212.06 C 211.43 211.98 210.41 211.81 209.89 211.73 C 210.61 211.13 211.33 210.53 212.04 209.92 Z" />
<path fill="#796248" d=" M 200.27 215.37 C 203.58 214.44 206.77 213.14 209.89 211.73 C 210.41 211.81 211.43 211.98 211.94 212.06 C 204.25 225.24 187.41 226.08 174.70 231.73 C 159.56 239.10 142.21 235.27 126.03 235.73 C 114.68 233.73 101.20 239.41 97.65 251.03 C 96.25 250.49 94.84 249.94 93.53 249.22 C 99.86 233.63 120.34 232.33 135.00 233.01 C 153.00 235.29 168.68 225.29 185.61 221.59 C 189.12 219.68 184.54 219.95 182.72 219.67 C 188.53 218.07 194.54 217.23 200.27 215.37 Z" />
<path fill="#c9b7ad" d=" M 31.85 214.97 C 32.61 215.02 34.13 215.13 34.89 215.18 C 32.98 220.09 36.76 223.71 39.95 227.10 C 42.83 230.67 44.13 235.52 48.03 238.19 C 47.59 242.22 46.20 246.09 45.13 249.99 C 43.70 237.49 33.52 227.54 31.85 214.97 Z" />
<path fill="#b29679" d=" M 39.95 227.10 C 39.34 224.81 35.29 217.89 39.97 218.97 C 48.10 219.42 46.88 234.62 55.32 232.19 C 55.54 232.59 55.99 233.40 56.21 233.80 C 58.81 244.48 50.56 257.00 40.78 259.96 C 41.38 258.76 41.85 257.51 42.20 256.22 C 43.07 254.61 43.91 252.98 44.60 251.29 C 44.73 250.97 45.00 250.31 45.13 249.99 C 46.20 246.09 47.59 242.22 48.03 238.19 C 44.13 235.52 42.83 230.67 39.95 227.10 Z" />
<path fill="#695039" d=" M 142.01 220.04 C 150.15 220.60 158.40 222.93 166.53 221.07 C 171.95 220.86 177.37 220.55 182.72 219.67 C 184.54 219.95 189.12 219.68 185.61 221.59 C 168.68 225.29 153.00 235.29 135.00 233.01 C 120.34 232.33 99.86 233.63 93.53 249.22 C 91.96 248.47 90.78 247.16 89.55 245.98 C 95.48 241.77 99.99 236.08 103.69 229.87 C 103.43 232.48 105.94 232.08 107.68 231.68 C 120.67 228.04 134.94 229.97 147.31 224.33 C 149.65 221.11 143.41 222.22 142.01 220.04 Z" />
<path fill="#968067" d=" M 207.80 223.80 C 209.34 222.39 211.36 223.14 212.98 223.94 C 213.50 225.90 213.86 227.89 214.16 229.89 C 204.98 227.69 200.65 239.76 192.14 241.15 C 168.55 244.57 144.78 239.06 121.12 240.16 C 111.75 240.17 101.42 247.29 101.08 257.11 C 100.88 257.38 100.47 257.92 100.27 258.19 L 100.15 257.04 C 100.06 255.38 99.98 253.72 99.91 252.06 C 102.46 247.20 105.75 242.16 111.08 240.08 C 127.82 234.71 145.80 240.14 163.00 239.08 C 179.67 241.24 194.38 232.32 207.80 223.80 Z" />
<path fill="#816e32" d=" M 82.81 247.06 C 85.51 236.56 96.01 232.68 104.11 227.02 C 104.00 227.73 103.79 229.16 103.69 229.87 C 99.99 236.08 95.48 241.77 89.55 245.98 C 87.32 246.47 85.09 247.01 82.81 247.06 Z" />
<path fill="#a48f77" d=" M 192.14 241.15 C 200.65 239.76 204.98 227.69 214.16 229.89 C 214.52 231.13 214.89 232.37 215.25 233.61 L 214.76 234.41 C 213.47 241.96 204.89 242.27 198.93 243.87 C 173.49 247.71 147.99 241.00 122.51 242.39 C 112.88 242.48 106.99 250.69 101.08 257.11 C 101.42 247.29 111.75 240.17 121.12 240.16 C 144.78 239.06 168.55 244.57 192.14 241.15 Z" />
<path fill="#a19473" d=" M 245.89 229.12 C 247.54 229.70 247.41 231.65 246.96 233.01 C 245.65 232.14 245.54 230.51 245.89 229.12 Z" />
<path fill="#604111" d=" M 57.73 236.20 C 56.97 227.65 65.43 234.57 68.09 237.81 C 72.12 242.27 78.69 242.54 82.81 247.06 C 85.09 247.01 87.32 246.47 89.55 245.98 C 90.78 247.16 91.96 248.47 93.53 249.22 C 94.84 249.94 96.25 250.49 97.65 251.03 C 98.22 251.29 99.35 251.80 99.91 252.06 C 99.98 253.72 100.06 255.38 100.15 257.04 C 96.86 260.47 91.40 262.86 87.14 259.76 C 84.24 257.04 78.93 256.01 76.08 259.29 C 74.02 262.64 80.37 271.92 73.14 271.04 C 68.00 263.46 68.09 253.96 64.01 245.97 C 63.08 243.79 63.11 238.62 59.82 240.77 C 57.09 241.30 58.26 237.81 57.73 236.20 Z" />
<path fill="#8e793f" d=" M 56.21 233.80 C 56.72 234.60 57.22 235.40 57.73 236.20 C 58.26 237.81 57.09 241.30 59.82 240.77 C 61.64 251.45 63.40 262.37 65.02 273.12 C 57.13 269.00 62.78 254.55 57.90 249.03 C 55.81 250.82 59.73 258.88 56.02 260.83 C 55.96 260.32 55.86 259.30 55.81 258.79 C 55.89 257.11 55.93 255.43 55.90 253.76 C 53.04 257.38 50.69 261.37 47.77 264.95 C 43.17 267.26 41.23 263.93 39.74 260.75 L 40.08 260.01 L 40.78 259.96 C 50.56 257.00 58.81 244.48 56.21 233.80 Z" />
<path fill="#857b47" d=" M 215.25 233.61 C 220.58 235.11 223.39 242.26 222.43 247.30 C 222.79 251.03 225.46 254.33 224.82 258.26 C 221.35 250.36 217.48 242.62 214.76 234.41 L 215.25 233.61 Z" />
<path fill="#b59d85" d=" M 198.93 243.87 C 204.89 242.27 213.47 241.96 214.76 234.41 C 217.48 242.62 221.35 250.36 224.82 258.26 C 225.26 259.44 225.75 260.60 226.22 261.77 C 226.67 264.16 228.04 267.91 224.36 268.14 C 223.55 262.05 220.59 256.07 216.18 251.79 C 215.95 253.61 215.80 255.45 215.66 257.30 C 215.55 256.94 215.33 256.23 215.21 255.88 C 214.92 253.87 214.63 251.86 214.19 249.88 C 213.97 248.53 213.54 245.84 213.32 244.49 C 183.84 251.63 153.32 243.01 123.50 244.39 C 108.69 245.42 103.45 261.30 92.43 268.45 C 89.01 271.53 82.72 269.58 80.49 273.98 L 79.73 273.92 L 79.34 273.18 C 82.85 267.66 91.60 268.43 95.30 262.26 C 97.37 261.47 99.55 260.50 100.27 258.19 C 100.47 257.92 100.88 257.38 101.08 257.11 C 106.99 250.69 112.88 242.48 122.51 242.39 C 147.99 241.00 173.49 247.71 198.93 243.87 Z" />
<path fill="#a19364" d=" M 59.82 240.77 C 63.11 238.62 63.08 243.79 64.01 245.97 C 64.95 256.44 66.43 266.73 67.16 277.18 C 67.58 280.28 63.28 285.03 67.03 286.63 C 66.15 288.17 64.59 289.13 62.92 288.07 C 63.77 285.85 64.50 283.52 61.21 283.73 C 57.66 276.22 56.40 267.99 54.71 259.93 C 54.99 259.65 55.54 259.08 55.81 258.79 C 55.86 259.30 55.96 260.32 56.02 260.83 C 59.73 258.88 55.81 250.82 57.90 249.03 C 62.78 254.55 57.13 269.00 65.02 273.12 C 63.40 262.37 61.64 251.45 59.82 240.77 Z" />
<path fill="#65611a" d=" M 243.71 240.61 C 247.94 237.92 249.16 242.17 246.44 245.13 C 248.93 255.20 254.48 266.24 250.28 276.55 C 255.65 277.74 256.66 281.57 252.49 285.12 C 251.37 285.00 250.25 284.88 249.14 284.77 C 244.88 280.60 238.10 280.32 235.68 274.29 C 237.56 270.44 237.16 266.40 232.39 265.48 C 232.78 257.98 228.65 250.48 231.19 243.18 C 235.43 238.31 239.30 249.17 243.52 244.54 C 246.26 243.94 242.21 241.58 243.71 240.61 Z" />
<path fill="#bba899" d=" M 123.50 244.39 C 153.32 243.01 183.84 251.63 213.32 244.49 C 213.54 245.84 213.97 248.53 214.19 249.88 C 182.74 252.66 151.40 244.34 120.11 248.11 C 107.05 254.41 101.08 270.62 85.60 273.13 C 84.03 273.63 82.09 274.05 81.63 275.90 C 81.35 275.42 80.78 274.46 80.49 273.98 C 82.72 269.58 89.01 271.53 92.43 268.45 C 103.45 261.30 108.69 245.42 123.50 244.39 Z" />
<path fill="#775723" d=" M 64.01 245.97 C 68.09 253.96 68.00 263.46 73.14 271.04 C 80.37 271.92 74.02 262.64 76.08 259.29 C 78.93 256.01 84.24 257.04 87.14 259.76 C 80.74 259.21 75.08 265.93 78.69 271.99 C 78.85 272.29 79.18 272.89 79.34 273.18 L 79.73 273.92 C 78.20 273.92 76.67 273.93 75.14 274.05 C 73.48 277.55 71.32 279.01 67.16 277.18 C 66.43 266.73 64.95 256.44 64.01 245.97 Z" />
<path fill="#c7b6a9" d=" M 120.11 248.11 C 151.40 244.34 182.74 252.66 214.19 249.88 C 214.63 251.86 214.92 253.87 215.21 255.88 C 211.74 253.21 207.04 254.37 203.02 254.00 C 177.89 254.65 152.95 248.10 127.90 250.86 C 110.03 250.97 104.73 276.33 85.60 273.13 C 101.08 270.62 107.05 254.41 120.11 248.11 Z" />
<path fill="#d2c3b8" d=" M 127.90 250.86 C 152.95 248.10 177.89 254.65 203.02 254.00 C 207.04 254.37 211.74 253.21 215.21 255.88 C 215.33 256.23 215.55 256.94 215.66 257.30 C 216.11 259.18 216.62 261.05 217.16 262.92 L 217.05 263.99 C 214.04 258.66 207.51 258.09 201.99 258.13 C 177.85 258.15 153.64 251.15 129.61 254.53 C 121.91 255.89 115.59 260.82 110.21 266.24 C 102.82 273.69 92.00 274.77 82.37 277.05 C 82.19 276.76 81.82 276.19 81.63 275.90 C 82.09 274.05 84.03 273.63 85.60 273.13 C 104.73 276.33 110.03 250.97 127.90 250.86 Z" />
<path fill="#b08561" d=" M 216.18 251.79 C 220.59 256.07 223.55 262.05 224.36 268.14 C 228.04 267.91 226.67 264.16 226.22 261.77 C 228.47 264.59 230.93 267.35 232.23 270.78 C 228.01 275.19 237.78 279.24 230.84 281.37 C 229.00 275.70 222.94 277.87 221.05 272.81 C 219.69 269.53 218.45 266.21 217.16 262.92 C 216.62 261.05 216.11 259.18 215.66 257.30 C 215.80 255.45 215.95 253.61 216.18 251.79 Z" />
<path fill="#dccfc6" d=" M 129.61 254.53 C 153.64 251.15 177.85 258.15 201.99 258.13 C 207.51 258.09 214.04 258.66 217.05 263.99 C 217.00 264.52 216.89 265.59 216.84 266.13 C 204.75 260.80 191.04 263.85 178.52 260.64 C 163.75 258.66 148.83 257.15 133.92 258.15 C 119.00 260.84 109.65 275.97 93.90 276.83 C 90.89 278.06 85.56 276.24 84.63 280.04 C 83.76 279.13 83.04 278.10 82.37 277.05 C 92.00 274.77 102.82 273.69 110.21 266.24 C 115.59 260.82 121.91 255.89 129.61 254.53 Z" />
<path fill="#b48850" d=" M 47.77 264.95 C 50.69 261.37 53.04 257.38 55.90 253.76 C 55.93 255.43 55.89 257.11 55.81 258.79 C 55.54 259.08 54.99 259.65 54.71 259.93 C 53.61 261.00 52.67 262.22 51.87 263.53 C 49.46 265.93 46.40 267.49 43.88 269.74 C 41.45 271.65 42.38 276.24 38.68 276.71 C 35.09 276.99 31.47 275.41 28.35 273.70 C 26.01 270.15 32.64 272.52 34.84 271.80 C 35.56 269.68 35.49 267.46 35.41 265.26 C 37.55 264.33 40.84 264.14 39.06 261.07 L 39.74 260.75 C 41.23 263.93 43.17 267.26 47.77 264.95 Z" />
<path fill="#dbcac5" d=" M 40.08 260.01 C 39.40 258.30 40.20 256.30 42.20 256.22 C 41.85 257.51 41.38 258.76 40.78 259.96 L 40.08 260.01 Z" />
<path fill="#836447" d=" M 87.14 259.76 C 91.40 262.86 96.86 260.47 100.15 257.04 L 100.27 258.19 C 99.55 260.50 97.37 261.47 95.30 262.26 C 89.18 262.07 80.10 265.27 78.69 271.99 C 75.08 265.93 80.74 259.21 87.14 259.76 Z" />
<path fill="#e6dad2" d=" M 133.92 258.15 C 148.83 257.15 163.75 258.66 178.52 260.64 C 191.04 263.85 204.75 260.80 216.84 266.13 C 220.08 276.95 224.99 287.28 224.07 298.85 C 231.36 315.78 252.48 315.42 267.17 321.90 C 253.31 319.16 237.90 317.34 226.33 308.64 C 219.72 303.16 220.87 294.65 221.82 287.12 C 220.03 282.63 217.66 278.38 216.18 273.77 C 209.62 270.47 201.54 270.57 194.37 269.50 C 177.90 264.29 160.44 263.93 143.33 263.28 C 125.38 263.14 111.87 278.48 94.01 279.07 C 91.50 279.87 86.92 278.60 86.75 282.18 C 86.02 281.48 85.32 280.77 84.63 280.04 C 85.56 276.24 90.89 278.06 93.90 276.83 C 109.65 275.97 119.00 260.84 133.92 258.15 Z" />
<path fill="#c2a984" d=" M 51.87 263.53 C 52.67 262.22 53.61 261.00 54.71 259.93 C 56.40 267.99 57.66 276.22 61.21 283.73 C 51.30 280.63 58.66 268.99 51.87 263.53 Z" />
<path fill="#ceb191" d=" M 27.83 269.93 C 32.28 267.86 34.31 262.62 39.06 261.07 C 40.84 264.14 37.55 264.33 35.41 265.26 C 35.49 267.46 35.56 269.68 34.84 271.80 C 32.64 272.52 26.01 270.15 28.35 273.70 C 31.47 275.41 35.09 276.99 38.68 276.71 C 42.38 276.24 41.45 271.65 43.88 269.74 C 44.54 277.01 38.26 279.28 31.79 278.26 C 28.87 277.40 23.62 272.15 27.83 269.93 Z" />
<path fill="#9a816b" d=" M 78.69 271.99 C 80.10 265.27 89.18 262.07 95.30 262.26 C 91.60 268.43 82.85 267.66 79.34 273.18 C 79.18 272.89 78.85 272.29 78.69 271.99 Z" />
<path fill="#eee5df" d=" M 94.01 279.07 C 111.87 278.48 125.38 263.14 143.33 263.28 C 160.44 263.93 177.90 264.29 194.37 269.50 C 201.54 270.57 209.62 270.47 216.18 273.77 C 217.66 278.38 220.03 282.63 221.82 287.12 C 220.87 294.65 219.72 303.16 226.33 308.64 C 237.90 317.34 253.31 319.16 267.17 321.90 C 269.12 322.82 271.10 323.71 273.28 323.86 C 274.36 324.77 275.39 325.73 276.38 326.75 C 260.07 322.10 242.77 319.60 226.98 313.02 C 210.44 308.23 210.88 286.95 196.31 279.76 C 174.57 274.72 151.67 267.87 129.39 274.53 C 118.20 278.68 106.64 281.96 94.85 283.81 C 89.06 284.15 92.08 292.50 86.05 292.99 C 83.04 294.50 74.35 292.84 75.37 298.44 C 76.22 301.70 75.96 305.87 73.12 308.11 C 73.15 307.35 73.20 305.82 73.22 305.06 C 74.42 302.61 75.79 299.52 73.07 297.89 L 73.03 296.97 C 72.98 295.71 72.93 294.45 72.87 293.19 C 78.38 294.17 89.33 293.11 86.89 284.79 C 86.86 284.14 86.79 282.83 86.75 282.18 C 86.92 278.60 91.50 279.87 94.01 279.07 Z" />
<path fill="#d7b996" d=" M 217.16 262.92 C 218.45 266.21 219.69 269.53 221.05 272.81 C 221.18 281.06 228.79 285.82 231.92 292.92 C 230.74 295.50 226.85 299.01 230.67 301.33 C 239.36 309.11 250.56 313.45 261.22 317.85 C 247.57 315.03 234.05 308.87 224.07 298.85 C 224.99 287.28 220.08 276.95 216.84 266.13 C 216.89 265.59 217.00 264.52 217.05 263.99 L 217.16 262.92 Z" />
<path fill="#d7c1a6" d=" M 43.88 269.74 C 46.40 267.49 49.46 265.93 51.87 263.53 C 58.66 268.99 51.30 280.63 61.21 283.73 C 64.50 283.52 63.77 285.85 62.92 288.07 C 62.64 288.28 62.08 288.71 61.80 288.93 C 61.43 288.94 60.68 288.96 60.30 288.97 C 60.10 282.88 52.86 283.63 49.22 280.69 C 50.03 275.43 51.68 268.18 43.88 269.74 Z" />
<path fill="#ede3d9" d=" M 43.88 269.74 C 51.68 268.18 50.03 275.43 49.22 280.69 C 52.86 283.63 60.10 282.88 60.30 288.97 C 60.03 290.50 59.47 293.56 59.19 295.09 C 59.31 292.29 59.05 289.07 56.04 287.92 C 48.86 284.03 44.15 294.36 36.84 291.98 C 37.46 287.79 42.53 284.22 40.35 279.63 C 37.68 278.51 34.58 278.89 31.79 278.26 C 38.26 279.28 44.54 277.01 43.88 269.74 Z" />
<path fill="#9c7346" d=" M 232.23 270.78 C 233.33 271.99 234.47 273.17 235.68 274.29 C 238.10 280.32 244.88 280.60 249.14 284.77 C 246.74 288.06 250.50 291.28 251.84 294.21 C 270.08 300.62 277.61 323.12 295.79 330.02 C 291.91 335.08 296.65 337.45 301.15 334.47 C 303.06 333.85 304.97 333.22 306.94 332.81 C 304.80 335.38 304.15 339.86 300.40 340.51 C 296.12 342.14 291.89 338.70 289.53 335.41 C 285.05 329.55 279.00 325.35 273.22 320.93 C 271.96 316.51 267.67 314.40 264.65 311.36 C 258.46 304.37 245.98 303.81 243.72 293.37 C 238.75 295.67 239.05 287.73 233.86 288.96 C 232.32 286.67 231.41 284.04 230.84 281.37 C 237.78 279.24 228.01 275.19 232.23 270.78 Z" />
<path fill="#cab590" d=" M 286.72 271.57 C 289.43 270.65 292.31 270.87 295.16 270.74 C 300.61 273.03 299.05 283.02 293.02 284.15 C 295.05 281.54 297.10 278.59 297.09 275.14 C 294.68 272.36 290.03 272.28 286.72 271.57 Z" />
<path fill="#f5efeb" d=" M 129.39 274.53 C 151.67 267.87 174.57 274.72 196.31 279.76 C 210.88 286.95 210.44 308.23 226.98 313.02 C 242.77 319.60 260.07 322.10 276.38 326.75 C 283.25 329.71 288.31 335.52 292.43 341.58 C 299.10 347.91 309.45 340.60 308.15 332.01 C 310.61 334.83 313.42 339.22 310.76 342.79 C 304.84 347.32 295.46 349.40 289.81 343.26 C 285.57 337.78 279.79 333.85 274.27 329.80 C 263.48 324.66 250.78 326.44 240.10 320.85 C 236.00 319.00 231.35 320.08 227.17 318.75 C 217.85 317.57 210.48 310.65 201.24 309.71 C 193.54 311.47 192.08 300.20 184.94 299.95 C 180.13 296.04 173.69 296.12 168.32 293.44 C 166.66 294.38 165.34 296.68 163.16 295.96 C 153.28 287.56 137.82 298.04 127.63 290.43 C 122.58 287.94 114.29 285.97 110.58 291.64 C 101.82 290.69 94.38 293.26 86.61 296.43 C 77.43 294.83 80.09 308.97 72.02 309.26 C 72.29 308.97 72.85 308.40 73.12 308.11 C 75.96 305.87 76.22 301.70 75.37 298.44 C 74.35 292.84 83.04 294.50 86.05 292.99 C 92.08 292.50 89.06 284.15 94.85 283.81 C 106.64 281.96 118.20 278.68 129.39 274.53 Z" />
<path fill="#b48c48" d=" M 269.77 284.41 C 277.02 282.39 281.81 276.63 286.72 271.57 C 290.03 272.28 294.68 272.36 297.09 275.14 C 297.10 278.59 295.05 281.54 293.02 284.15 C 290.21 285.79 287.52 287.63 284.83 289.46 C 279.55 289.75 273.79 287.90 269.77 284.41 Z" />
<path fill="#c7a680" d=" M 221.05 272.81 C 222.94 277.87 229.00 275.70 230.84 281.37 C 231.41 284.04 232.32 286.67 233.86 288.96 C 236.67 294.62 242.55 297.83 245.88 303.11 C 250.77 314.36 264.68 313.78 273.22 320.93 C 279.00 325.35 285.05 329.55 289.53 335.41 C 291.89 338.70 296.12 342.14 300.40 340.51 C 304.15 339.86 304.80 335.38 306.94 332.81 C 304.97 333.22 303.06 333.85 301.15 334.47 C 298.30 329.95 294.56 325.46 290.62 321.23 C 291.22 321.45 292.41 321.90 293.01 322.12 C 296.47 327.57 303.12 328.64 308.15 332.01 C 309.45 340.60 299.10 347.91 292.43 341.58 C 288.31 335.52 283.25 329.71 276.38 326.75 C 275.39 325.73 274.36 324.77 273.28 323.86 C 270.18 320.36 265.39 319.48 261.22 317.85 C 250.56 313.45 239.36 309.11 230.67 301.33 C 226.85 299.01 230.74 295.50 231.92 292.92 C 228.79 285.82 221.18 281.06 221.05 272.81 Z" />
<path fill="#976d30" d=" M 67.16 277.18 C 71.32 279.01 73.48 277.55 75.14 274.05 C 77.12 279.14 73.29 289.01 82.26 286.26 C 77.58 288.11 71.72 288.71 67.03 286.63 C 63.28 285.03 67.58 280.28 67.16 277.18 Z" />
<path fill="#aa824f" d=" M 75.14 274.05 C 76.67 273.93 78.20 273.92 79.73 273.92 L 80.49 273.98 C 80.78 274.46 81.35 275.42 81.63 275.90 C 81.82 276.19 82.19 276.76 82.37 277.05 C 83.04 278.10 83.76 279.13 84.63 280.04 C 85.32 280.77 86.02 281.48 86.75 282.18 C 86.79 282.83 86.86 284.14 86.89 284.79 C 85.99 291.65 78.46 293.90 73.15 289.95 C 73.08 290.76 72.94 292.38 72.87 293.19 C 69.01 292.24 65.38 290.61 61.80 288.93 C 62.08 288.71 62.64 288.28 62.92 288.07 C 64.59 289.13 66.15 288.17 67.03 286.63 C 71.72 288.71 77.58 288.11 82.26 286.26 C 73.29 289.01 77.12 279.14 75.14 274.05 Z" />
<path fill="#9a8f5e" d=" M 261.18 280.93 C 263.54 283.11 266.83 283.44 269.77 284.41 C 273.79 287.90 279.55 289.75 284.83 289.46 C 288.27 292.07 292.16 293.94 296.04 295.81 C 296.06 297.53 296.51 299.12 298.10 300.00 C 297.64 300.04 296.71 300.11 296.25 300.14 C 287.51 299.13 280.47 289.95 270.98 294.22 C 271.42 297.01 275.03 297.36 277.00 298.87 C 276.54 298.91 275.60 298.98 275.13 299.01 C 277.27 304.76 283.09 308.16 284.78 314.05 C 285.37 315.11 286.13 316.05 286.91 316.98 C 288.11 318.43 289.37 319.83 290.62 321.23 C 294.56 325.46 298.30 329.95 301.15 334.47 C 296.65 337.45 291.91 335.08 295.79 330.02 C 277.61 323.12 270.08 300.62 251.84 294.21 C 250.50 291.28 246.74 288.06 249.14 284.77 C 250.25 284.88 251.37 285.00 252.49 285.12 C 255.11 288.07 256.52 286.56 256.27 283.00 C 258.94 282.95 263.35 285.44 261.18 280.93 Z" />
<path fill="#cdaf8e" d=" M 73.15 289.95 C 78.46 293.90 85.99 291.65 86.89 284.79 C 89.33 293.11 78.38 294.17 72.87 293.19 C 72.94 292.38 73.08 290.76 73.15 289.95 Z" />
<path fill="#c6a177" d=" M 60.30 288.97 C 60.68 288.96 61.43 288.94 61.80 288.93 C 65.38 290.61 69.01 292.24 72.87 293.19 C 72.93 294.45 72.98 295.71 73.03 296.97 C 69.95 294.53 67.56 299.59 64.37 298.55 C 60.38 297.39 56.07 301.08 56.57 305.23 C 54.81 301.45 57.16 298.04 59.19 295.09 C 59.47 293.56 60.03 290.50 60.30 288.97 Z" />
<path fill="#b79065" d=" M 233.86 288.96 C 239.05 287.73 238.75 295.67 243.72 293.37 C 245.98 303.81 258.46 304.37 264.65 311.36 C 267.67 314.40 271.96 316.51 273.22 320.93 C 264.68 313.78 250.77 314.36 245.88 303.11 C 242.55 297.83 236.67 294.62 233.86 288.96 Z" />
<path fill="#856925" d=" M 270.98 294.22 C 280.47 289.95 287.51 299.13 296.25 300.14 C 296.13 302.45 294.57 304.09 292.86 305.47 C 286.96 305.02 281.96 301.77 277.00 298.87 C 275.03 297.36 271.42 297.01 270.98 294.22 Z" />
<path fill="#a17144" d=" M 64.37 298.55 C 67.56 299.59 69.95 294.53 73.03 296.97 L 73.07 297.89 C 73.11 299.68 73.19 303.27 73.22 305.06 C 73.20 305.82 73.15 307.35 73.12 308.11 C 72.85 308.40 72.29 308.97 72.02 309.26 C 70.71 309.56 69.40 309.84 68.08 310.10 C 66.28 310.17 62.67 310.32 60.86 310.39 C 58.58 309.54 57.31 307.42 56.57 305.23 C 56.07 301.08 60.38 297.39 64.37 298.55 Z" />
<path fill="#b5a87c" d=" M 296.04 295.81 C 302.69 297.62 308.70 302.12 315.93 301.08 L 315.92 301.95 C 309.85 303.35 303.89 301.77 298.10 300.00 C 296.51 299.12 296.06 297.53 296.04 295.81 Z" />
<path fill="#be9358" d=" M 317.27 300.35 C 323.22 298.31 330.17 295.09 335.84 299.55 C 338.22 301.40 340.98 302.06 343.84 300.95 C 340.53 304.77 343.01 306.31 346.99 307.17 C 345.67 316.82 335.33 309.98 330.26 307.75 C 327.19 307.15 324.07 307.04 320.97 306.84 C 322.05 305.05 323.11 303.15 323.09 300.99 C 320.67 301.08 318.31 301.64 315.92 301.95 L 315.93 301.08 C 316.27 300.90 316.94 300.53 317.27 300.35 Z" />
<path fill="#d0ae8d" d=" M 73.07 297.89 C 75.79 299.52 74.42 302.61 73.22 305.06 C 73.19 303.27 73.11 299.68 73.07 297.89 Z" />
<path fill="#dbc7b5" d=" M 224.07 298.85 C 234.05 308.87 247.57 315.03 261.22 317.85 C 265.39 319.48 270.18 320.36 273.28 323.86 C 271.10 323.71 269.12 322.82 267.17 321.90 C 252.48 315.42 231.36 315.78 224.07 298.85 Z" />
<path fill="#bf9c6c" d=" M 275.13 299.01 C 275.60 298.98 276.54 298.91 277.00 298.87 C 281.96 301.77 286.96 305.02 292.86 305.47 C 300.61 308.60 309.49 310.60 317.62 307.77 C 317.53 309.18 317.52 310.60 317.45 312.02 C 306.71 312.39 295.92 311.41 285.20 312.22 C 285.10 312.68 284.89 313.60 284.78 314.05 C 283.09 308.16 277.27 304.76 275.13 299.01 Z" />
<path fill="#cdab7d" d=" M 335.84 299.55 C 343.11 296.39 353.39 301.41 348.93 309.92 C 347.76 310.60 347.06 311.92 347.25 313.29 C 341.81 313.31 336.37 314.03 330.96 313.15 C 330.84 311.33 330.64 309.53 330.26 307.75 C 335.33 309.98 345.67 316.82 346.99 307.17 C 343.01 306.31 340.53 304.77 343.84 300.95 C 340.98 302.06 338.22 301.40 335.84 299.55 Z" />
<path fill="#a2792f" d=" M 296.25 300.14 C 296.71 300.11 297.64 300.04 298.10 300.00 C 303.89 301.77 309.85 303.35 315.92 301.95 C 318.31 301.64 320.67 301.08 323.09 300.99 C 323.11 303.15 322.05 305.05 320.97 306.84 C 319.84 307.11 318.72 307.42 317.62 307.77 C 309.49 310.60 300.61 308.60 292.86 305.47 C 294.57 304.09 296.13 302.45 296.25 300.14 Z" />
<path fill="#d8bf9b" d=" M 317.62 307.77 C 318.72 307.42 319.84 307.11 320.97 306.84 C 324.07 307.04 327.19 307.15 330.26 307.75 C 330.64 309.53 330.84 311.33 330.96 313.15 C 326.40 312.93 321.82 313.10 317.29 313.30 C 307.22 312.29 297.15 313.81 287.11 313.09 C 286.99 314.38 286.93 315.68 286.91 316.98 C 286.13 316.05 285.37 315.11 284.78 314.05 C 284.89 313.60 285.10 312.68 285.20 312.22 C 295.92 311.41 306.71 312.39 317.45 312.02 C 317.52 310.60 317.53 309.18 317.62 307.77 Z" />
<path fill="#d2bba7" d=" M 60.86 310.39 C 62.67 310.32 66.28 310.17 68.08 310.10 C 66.50 312.58 63.08 311.93 60.86 310.39 Z" />
<path fill="#e5d3c2" d=" M 347.25 313.29 C 347.06 311.92 347.76 310.60 348.93 309.92 C 349.47 311.34 349.05 313.22 347.25 313.29 Z" />
<path fill="#efe7de" d=" M 287.11 313.09 C 297.15 313.81 307.22 312.29 317.29 313.30 C 308.70 315.32 299.49 314.99 291.17 317.96 C 291.74 319.36 292.41 320.72 293.01 322.12 C 292.41 321.90 291.22 321.45 290.62 321.23 C 289.37 319.83 288.11 318.43 286.91 316.98 C 286.93 315.68 286.99 314.38 287.11 313.09 Z" />
<path fill="#e2cbb2" d=" M 330.96 313.15 C 336.37 314.03 341.81 313.31 347.25 313.29 C 342.16 316.12 336.22 314.83 330.96 313.15 Z" />
</svg>
